/* XPM */
static char *_c67cf07615746da841cac23f6700c1dXjnGaYtQtVHBDFrz[] = {
/* columns rows colors chars-per-pixel */
"64 64 256 2 ",
"   c #020000",
".  c #080608",
"X  c #020518",
"o  c #1B1411",
"O  c #2E1A13",
"+  c #332A1A",
"@  c #000823",
"#  c #000937",
"$  c #011D37",
"%  c #0D192B",
"&  c #142636",
"*  c #2F2B2F",
"=  c #4B3335",
"-  c #69353A",
";  c #79383A",
":  c #762A31",
">  c #644F3C",
",  c #001945",
"<  c #001F5A",
"1  c #1B344C",
"2  c #122F54",
"3  c #383547",
"4  c #243253",
"5  c #15396D",
"6  c #5B3B46",
"7  c #473D4A",
"8  c #6B3644",
"9  c #763B43",
"0  c #6D364A",
"q  c #344655",
"w  c #184869",
"e  c #2A547B",
"r  c #365677",
"t  c #2E4B6A",
"y  c #275365",
"u  c #464758",
"i  c #584958",
"p  c #5B585B",
"a  c #51494D",
"s  c #674B57",
"d  c #6D4952",
"f  c #756755",
"g  c #4F556C",
"h  c #694E66",
"j  c #675966",
"k  c #655570",
"l  c #586577",
"z  c #496474",
"x  c #66686B",
"c  c #6A6978",
"v  c #787879",
"b  c #706D77",
"n  c #863839",
"m  c #903837",
"M  c #84403D",
"N  c #893C42",
"B  c #8C484D",
"V  c #B26E76",
"C  c #9A6070",
"Z  c #878272",
"A  c #D68278",
"S  c #285983",
"D  c #365987",
"F  c #395D94",
"G  c #29508A",
"H  c #356888",
"J  c #386898",
"K  c #33708C",
"L  c #1A6CA5",
"P  c #2A74AB",
"I  c #3A77A5",
"U  c #2A7CB9",
"Y  c #377AB8",
"T  c #3366B4",
"R  c #1B4D8C",
"E  c #455C89",
"W  c #486888",
"Q  c #497588",
"!  c #547588",
"~  c #497899",
"^  c #587895",
"/  c #4E6B91",
"(  c #657B85",
")  c #767985",
"_  c #7A7D96",
"`  c #687291",
"'  c #4576A7",
"]  c #5C77A7",
"[  c #487AB7",
"{  c #587DB1",
"}  c #627FB7",
"|  c #3979CE",
" . c #507BC9",
".. c #AB7D85",
"X. c #827E95",
"o. c #C17D88",
"O. c #3487B6",
"+. c #598899",
"@. c #4A859B",
"#. c #788387",
"$. c #698797",
"%. c #798494",
"&. c #6F8E91",
"*. c #4C84AA",
"=. c #4986B8",
"-. c #548AB7",
";. c #5695B9",
":. c #508EAE",
">. c #678CA9",
",. c #758AA7",
"<. c #6697B8",
"1. c #729AB8",
"2. c #7394B0",
"3. c #6EA2AF",
"4. c #3B87C7",
"5. c #3897D0",
"6. c #3CA4DA",
"7. c #3AABE5",
"8. c #4889C7",
"9. c #4494C6",
"0. c #5897C7",
"q. c #4A9AD5",
"w. c #599BD6",
"e. c #518BCC",
"r. c #689AC3",
"t. c #6D9ACA",
"y. c #5DA4C8",
"u. c #5AA6D6",
"i. c #4FAAD8",
"p. c #67A7C8",
"a. c #66A6D7",
"s. c #77ABD8",
"d. c #66B5DC",
"f. c #76B8DD",
"g. c #72ADC8",
"h. c #5193E2",
"j. c #4BA9E9",
"k. c #58AAE8",
"l. c #4DB7EA",
"z. c #54BAED",
"x. c #59B5E8",
"c. c #5BACF3",
"v. c #4CB7F8",
"b. c #54BCF5",
"n. c #5CBBF4",
"m. c #54BDFD",
"M. c #5BBCFC",
"N. c #56B5F8",
"B. c #66ABE6",
"V. c #66B7E8",
"C. c #76B7E6",
"Z. c #64BDF2",
"A. c #63BCFD",
"S. c #6DBCFB",
"D. c #66B8F5",
"F. c #75B4EB",
"G. c #4CC1FD",
"H. c #53C2FC",
"J. c #5CC2FE",
"K. c #5AC4F6",
"L. c #5AC1EE",
"P. c #75C3EA",
"I. c #63C3FD",
"U. c #6AC6F7",
"Y. c #76C6FB",
"T. c #8C8C8B",
"R. c #838483",
"E. c #8D8597",
"W. c #8B959C",
"Q. c #939393",
"!. c #989899",
"~. c #948C92",
"^. c #B5949C",
"/. c #8691A3",
"(. c #989EA5",
"). c #8D91A9",
"_. c #A29BA5",
"`. c #83A6B7",
"'. c #9CA6B5",
"]. c #93A5AA",
"[. c #A3A3A3",
"{. c #ABAAAD",
"}. c #A7ACB9",
"|. c #B8B8BA",
" X c #B1B0B3",
".X c #99A29F",
"XX c #C88C97",
"oX c #D4979A",
"OX c #CF9092",
"+X c #E69799",
"@X c #CE96A4",
"#X c #CAB0B2",
"$X c #E19DA8",
"%X c #ABC2BE",
"&X c #8BA9C7",
"*X c #95AAC6",
"=X c #84B6DC",
"-X c #90B4CC",
";X c #ACBACA",
":X c #B7BAC3",
">X c #B0B3CC",
",X c #88B9E9",
"<X c #A8BEE3",
"1X c #C8BEC9",
"2X c #9AC7DB",
"3X c #BAC5C9",
"4X c #B7C4D7",
"5X c #AECBDB",
"6X c #8BC4EC",
"7X c #B2D2EB",
"8X c #BEE4ED",
"9X c #C5C4C4",
"0X c #C5C6C9",
"qX c #D2CAC8",
"wX c #C7CAD6",
"eX c #C8D4D9",
"rX c #DCDCDC",
"tX c #D3D3D5",
"yX c #D2D0CF",
"uX c #E2E2D7",
"iX c #C9D4E6",
"pX c #DADCE1",
"aX c #CAD6F3",
"sX c #D8E3EA",
"dX c #C8E7FC",
"fX c #DAE7F9",
"gX c #DCF6FF",
"hX c #CEEDF5",
"jX c #E4E5E5",
"kX c #E8E9EB",
"lX c #F8EAE8",
"zX c #FFFCEC",
"xX c #F8F6E9",
"cX c #EDEEF2",
"vX c #E8EBF8",
"bX c #F8EDF1",
"nX c #ECFCFE",
"mX c #E9F7FB",
"MX c #F3F3F4",
"NX c #FCF4F4",
"BX c #F4FBF5",
"VX c #FEFDF5",
"CX c #F4F6FA",
"ZX c #FDF5FC",
"AX c #F5FDFE",
"SX c #FAFFFF",
"DX c #FFFFFD",
"FX c #FEFEFD",
"GX c #FFFDFF",
"HX c #FFFEFF",
"JX c white",
"KX c #FEFFFF",
"LX c #FDFEFD",
"PX c #FEFEFE",
"IX c #EEF5EF",
"UX c #E3DBF2",
/* pixels */
"FXFXFXFXFXFXFXFXFXFXFXFXFXFXFXFXGXFXFXFXFXFXFXFXFXFXFXFXFXFXFXFXFXBXMXFXSXSXSXAXkX0X|.jXSXCXCXSXFXFXFXFXFXFXFXFXFXFXFXFXFXFXFXFX",
"FXFXFXVXFXFXFXFXFXFXVXFXFXFXFXFXFXFXFXFXFXFXFXFXLXGXFXFXFXFXGXGXBXFXFXFXFXZXFXsX* .   b FXFXFXZXFXFXFXFXFXFXFXFXFXFXFXFXFXFXFXFX",
"VXFXFXFXFXFXFXBXFXFXFXFXFXVXFXFXFXFXFXFXFXFXFXFXFXFXFXFXFXFXFXFXFXMXFXFXFXGXZXb . * qXVXlXVXNXFXFXSXFXFXFXFXFXFXFXFXFXFXFXFXFXFX",
"FXFXFXFXFXFXFXFXFXVXMXVXFXFXFXFXFXFXFXFXFXFXFXFXFXFXFXGXVXVXGXLXSXSXFXFXbXLXLXa   yXVXVXVXzXzXxXFXSXSXFXFXFXFXFXFXFXFXFXFXFXFXFX",
"FXLXVXFXFXFXVXVXVXVXFXFXFXFXVXLXFXFXFXFXFXFXFXFXVXGXFXFXFXFXFXFXSXCXLXVXFXFXNXa * mXAXAXBXVXVXVXFXSXFXFXFXFXFXFXFXFXFXFXFXFXFXFX",
"FXFXFXFXFXVXVXFXFXFXFXFXFXVXFXFXFXFXFXFXFXFXFXFXFXFXFXLXVXGXGXSXW.3XSXjX9XVXFX* q AXmXAXAXAXBXVXFXFXFXFXFXFXFXFXFXFXFXFXFXFXFXFX",
"FXFXFXVXVXFXFXFXFXkXrXjXMXFXFXLXMXMXMXMXIXMXMXBXFXFXFXFXFXFXFXFXq u wXg & CX}.& }.AXnXAXSXSXSXSXFXFXFXFXFXFXFXFXFXFXFXFXFXFXFXFX",
"FXFXLXLXFXFXyX!.R.T.Q.Q.R.v v T.T.T.T.T.T.T.T.T.Q.[.9XrXMXFXFXSX( $.! $.4 ^ t $.AXfXAXSXCXSXSXFXFXFXFXFXFXFXFXFXFXFXFXFXFXFXFXFX",
"VXFXFXFXMXQ.Q.0XcXFXjXrX0X0XyXjXMXMXVXFXVXMXkXjXyX9X{.Q.T.Q.|.eXQ g.6Xp.K s.r.H `.l (.FXVXFXSXFXFXLXFXFXFXFXFXFXFXFXFXLXFXFXFXLX",
"FXFXMXCXR.|.FXVXcXrXjXFXMXVXFXMXMXMXVXVXVXMXMXMXFXGXFXFXFXjX9X].Q <.;.=.4.Y.0.w >.l |.FXFXFXSXAXFXFXFXSXFXFXFXVXFXFXFXFXFXFXMXFX",
"FXcXFX!.(.FXMXLXpXMXLXkXLXFXMXFXVXVXCXMXCXCXLXFXLXMXcXMXCXFXFXAXnX7X<.p.B.k.O.;.^ '.FXbXLXFXvXSXSXAXnXnXAXAXAXSXSXFXNXZXFXLXFXFX",
"FXFXFXQ.p |.LXMXT.{.LXFXVXMXMXCXCXCXCXCXCXCXCXCXMXCXFXFXCXMXMXCXnXnXdXp.V.V.Y *./ dXSXvXsX;X*X`.2.`.`.2.-X8XnXnXAXSXFXNXGXFXFXFX",
"FXLXMX!.{.FXCXcXv  XFXMXcXFXFXcXCXCXCXCXCXCXCXCXLXCXCXMXCXCXLXLXCXnXhXp.C.i.L 9.I ~ +.^ Q *.:.;.r.-.;.<.:.K @.`.nXnXvXFXFXFXFXBX",
"FXFXFXrXx tXFXFX0XcXFXcXCXFXMXVXLXCXCXCXCXCXLXLXLXCXMXCXCXCXCXMXAXmXhXg.P.x.O.i.U.V.y.f.f.P.V.V.q.u.i.i.d.P.p.@.^ hXAXvXFXFXFXFX",
"FXLXLXLXpXT.T.{.|.[.:XFXFXMXMXLXCXCXCXCXCXCXCXCXCXLXFXFXLXCXMXvXvXdX2Xa.x.z.7.H.l.b.U.x.Z.Z.5.6.j.M.J.b.l.x.V.f.<.z iXSXCXVXFXFX",
"FXFXFXFXVXFXyX[.Q.R.x T.|.jXcXMXCXCXCXCXCXmXcXcXcXvXkXjXjXsXsXaXaX7Xr.F.n.m.7.v.H.H.z.n.n.5.z.b.J.v.v.H.H.z.x.V.f.=Xr fXSXLXFXBX",
"FXFXFXFXFXFXFXFXFXFXMX0XQ.v T.[. X:X3XeXeXeXtXtXpX0X3X X|.}.1.f.0.=.u.V.A.N.5.H.b.b.J.M.c.k.n.K.z.b.G.G.m.M.D.D.x.Y.;.+.AXCXFXFX",
"FXFXFXFXFXFXFXFXVXFXFXFXFXMXtX|.(.(.W.%.#.#.#.#.) #.T.Q._./.S u.d.O.Z.n.D.j.5.J.b.M.v.j.q.D.n.l.L.K.H.G.m.M.A.N.m.J.V.*.;XFXFXFX",
"FXFXFXFXFXFXFXFXFXFXFXLXVXFXFXFXSXAXAXnXmXmXCXCXSXSXSXSXFX;X:.F.q.k.I.x.k.U A.A.k.c.q.O.P i.I.K.z.l.v.H.M.M.A.A.m.b.U.;.( SXFXFX",
"FXFXFXFXFXFXFXFXVXFXFXFXFXFXFXLXAXAXSXSXAXAXFXFXSXCXSXBXFX(.<.=.q.j.z.U.Z.Y.B.w.Y Y 4.U P 5.z.b.H.b.b.m.M.N.N.M.m.b.Z.C.W fXFXLX",
"FXFXFXFXFXFXFXFXFXFXVXVXFXFXFXFXSXSXFXSXAXAXSXFXFXFXFXLXFX/.Q I S.N.K.x.V.0.R R [ I =.=.9.q.J.H.H.H.m.z.x.A.A.M.m.b.x.Y.~ 4XFXLX",
"FXFXFXFXFXFXFXFXVXFXFXFXFXFXFXFXFXFXFXFXSXSXFXFXSXAXSXVXFX;Xr 6XV.A.J.x.y.*.' -.>.~ *.I O.9.n.v.m.v.b.U.U.x.l.m.H.b.b.F.*.*XCXFX",
"FXFXFXFXFXFXFXFXFXFXLXLXFXFXFXFXFXFXFXFXFXFXFXLXFXFXFXSXFXiXl gX,Xu.v.Z.Q `.~ <.].&.=.8.=.u.I.m.J.m.n.Z.k.9.6.j.G.b.J.Z.*.,.FXLX",
"FXFXFXFXFXFXFXFXVXFXFXFXFXFXFXFXFXFXFXFXFXFXFXFXFXLXFXLXLXeXc fX7X0.k.u.+.z >.1.%X$.S P P k.I.m.v.I.Z.9.O.q.N.m.v.G.b.Y.-./ SXLX",
"FXFXFXFXFXFXFXFXFXFXFXFXFXFXFXFXFXFXFXFXFXFXFXFXFXFXFXFXMX:Xc >X7Xr.y.y.K r 1.>.+.g.I w.j.M.M.N.M.A.q.P k.Y.j.J.v.H.b.S.=.W SXFX",
"FXFXFXFXFXFXFXFXFXFXFXFXFXFXFXFXFXFXFXFXFXFXFXFXFXFXFXFXFX{.= i l 2.0.;.K H <.' =.d.0.Y.m.m.J.M.M.j.U O.q.Z.M.m.m.H.n.V.I ^ SXVX",
"FXFXFXFXFXFXFXFXFXFXFXFXFXFXFXFXFXFXFXFXFXFXFXFXFXFXFXCXFX~.6 s 7 ^ ;.;.@.H e.h.8.S.j.M.H.v.N.M.c.U U x.i.q.b.m.H.m.M.B.J ,.SXNX",
"FXFXFXFXFXFXFXFXFXFXFXFXFXFXFXFXFXFXFXFXFXFXFXFXBXFXFXLXSXb - d i l ;.O.3.H 8.| | c.A.J.m.m.I.c.4.L k.U.U.I.J.m.m.v.D.w.D *XSXFX",
"FXFXFXFXFXFXFXFXFXFXFXFXFXFXFXFXFXFXFXFXFXGXFXFXVXFXFXFXCXj - - 6 c :.@.-XW Y h.T h.k.l.I.A.q.Y Y P V.k.I.M.v.m.v.J.k.-.r iXSXFX",
"FXFXFXFXFXFXFXFXFXFXFXFXFXFXFXFXFXFXFXFXFXGXFXSXVXVXGXLXkXj 9 B 8 k >.K 5X*XG  .T Y =.9.5.4.[ =.J e.Z.n.n.M.M.I.v.U.q.' g CXSXSX",
"FXFXFXFXFXFXFXFXFXFXFXFXFXFXFXFXFXFXFXFXGXGXFXSXVXVXFXFXwXi ; n 9 h ,.t 4XAX` D / 5 S *.Y 8.' G e I Z.b.l.J.I.j.m.M.8.D /.FXCXSX",
"FXFXFXFXFXFXFXFXFXFXFXFXFXFXFXFXFXFXLXFXFXFXFXFXFXFXFXCX}.i ; n 9 h ,.r }.LXFXiX*X<X2.r J F E 5X7XH u.Z.I.v.N.J.I.h.=.r iXGXCXSX",
"FXFXFXFXFXFXFXFXFXFXFXFXFXFXFXFXFXFXSXLXFXFXGXFXSXAXFXFX%.p ; m - j >.w '.FXGXGXCXAXnXdX8XgXCXFXAXdX~ w.S.I.v.m.A.w.F _ GXZXFXBX",
"FXFXFXFXFXFXFXFXFXFXFXFXFXFXFXFXGXFXSXLXVXFXGXGXSXSXFXBX&.p ; m 9 i 1.e W.ZXNXLXCXaX$.! ! ].AXFXAXAX! 1.,XB.S.6Xw.{ t wXGXFXBXAX",
"FXFXFXFXFXFXFXFXFXFXFXFXFXFXFXFXFXFXSXLXVXFXGXFXFXSXFXkXb p ; m 9 s 1.w ( FXFXSX7X^ :.f.p.H Q 7XAXvXq l ,.,.,.` k 3 u GXLXSXBXAX",
"FXFXFXFXFXFXFXFXFXFXFXFXFXFXFXFXFXFXSXLXVXFXFXFXFXLXFXtXx s n m ; s &Xw ( FXmXnX! ;.P.V.d.d.;.H *X! q ! z u i a = o ~.FXCXSXSXBX",
"FXFXFXFXFXFXFXFXFXFXFXFXFXFXFXFXFXFXFXFXVXFXFXFXFXGXSX|.j d n n ; d &Xw l mXSXnX~ ;.S.M.L.z.x.9.H 1.6XC.=X] u 7 = s cXSXSXFXFXNX",
"FXFXFXFXFXFXFXFXFXFXFXFXFXFXFXFXFXFXSXFXVXFXFXFXGXGXSX.Xj d n n M 6 &Xy u LXSX;X5 *.q.k.I.A.Y.0.t.<.u.B.S.' g k = 1XFXAXAXFXZXZX",
"FXFXFXFXFXFXFXFXFXFXFXFXFXFXFXFXFXFXFXFXFXFXSXFXGXGXAX#.s 8 N n ; a -Xe q kXW.& 4 e ' 8.8.8.e.,XW 2 I B.4.T } g _ NXCXAXAXFXNXVX",
"FXFXFXFXFXFXFXFXFXFXFXFXFXFXFXFXFXFXFXFXFXLXSXFXGXGXnXx d ; n n ; s &Xe q 1X* X ).*XE F / / ] g 3 3 W =.| T G ` vXFXLXSXAXSXFXVX",
"FXFXFXFXFXFXFXFXFXFXFXFXFXFXFXFXFXFXFXFXLXLXSXFXGXGXwXp d ; n n - b -XH 1 |.7 . _.:Xq ` ` 1 3 * = + u E F ] >XFXFXVXFXSXAXAXSXFX",
"FXFXFXFXFXFXFXFXFXFXFXFXFXFXFXFXFXFXFXFXLXLXLXFXCXFX'.p 8 N : ; ..E.=XJ & yXqX#XqXo * u x * = - O f rXfXaXAXFXMXVXVXFXFXSXSXSXSX",
"FXFXFXFXFXFXFXFXFXFXFXFXFXFXFXFXFXFXFXFXSXSXFXFXGXFXE.j - n N V XX!.s.' @ {.FXVX#XO * o + + = O = uXSXSXSXvXFXFXFXFXFXFXFXFXFXFX",
"FXFXFXFXFXFXFXFXFXFXFXFXFXFXFXFXFXFXFXFXSXSXFXFXFXvX) h ; n V $XV E.=X=.@ (.VXlXzX XZ T.C f > f uXSXCXZXFXFXFXBXFXSXSXFXFXFXFXVX",
"FXFXFXFXFXFXFXFXFXFXFXFXFXFXFXFXFXFXFXFXSXSXFXFXAXwXc 6 ; V +Xo...).=X=.@ (.FXVXVXzXFXVXzXzXxXVXNXZXFXGXGXFXFXFXFXSXSXFXFXVXzXzX",
"FXFXFXFXFXFXFXFXFXFXFXFXFXFXFXFXFXFXFXFXSXSXFXFXAX'.k 6 ; OX+XV @X).s.=.@ W.MXVXVXVXFXLXFXVXNXGXZXGXZXVXFXFXFXFXFXFXSXFXFXVXzXzX",
"FXFXFXFXFXFXFXFXFXFXFXFXFXFXFXFXGXFXFXFXSXSXVXFXnX%.h 0 B OXOXXX@XE.s.0.@ %.LXFXFXFXMXCXSXFXZXGXGXbXFXLXIXLXBXVXFXFXFXFXFXFXFXFX",
"FXFXFXFXFXFXFXFXFXFXFXFXFXFXFXFXFXFXFXFXFXFXFXLXhX( h 8 B oXOXoX@XE.s.a.X ) SXVXFXZXFXFXSXFXGXGXZXFXBXBXAXAXFXFXFXFXFXFXFXSXSXSX",
"FXFXFXFXFXFXFXFXFXVXFXFXFXFXFXFXVXVXFXFXGXNXFXnX-Xl d 9 C @XXXXX@XX.B.u.@ ) SXBXFXFXFXSXFXFXGXGXFXFXFXFXFXFXFXFXFXFXFXFXFXFXFXFX",
"FXFXFXFXFXFXFXFXFXFXFXFXFXFXFXFXVXVXSXSXGXGXCXnX$.) 9 : C @XOXoX@XX.F.u.X #.SXBXFXFXFXSXFXFXFXFXFXFXFXFXFXFXFXFXFXFXFXFXFXFXFXFX",
"FXFXFXFXFXFXFXFXFXFXMXVXFXFXMXFXFXFXBXSXGXZXSXsX( x - n C OX+XOXXX_ C.w.X T.FXBXFXFXFXSXFXFXFXFXFXFXFXFXFXFXFXFXFXFXFXFXFXFXFXFX",
"FXFXFXFXFXFXFXFXMXFXFXrXjXFXFXFXFXcXSXSXCXCXLX#.( x - : C +XA OX@X_ C.0.X T.FXBXFXGXFXSXFXFXFXFXFXFXFXFXFXFXFXFXFXFXFXFXFXFXFXFX",
"FXFXFXFXFXFXFXFXFXMXv a * p jXFXFXFXLXSXFXFXx R.3XeX#X@X..oXOXoX^.%.C.0.X C FXFXFXGXFXSXFXFXFXFXFXFXFXFXFXFXFXFXFXFXFXFXFXFXFXFX",
"FXFXFXFXFXFXFXFXFX[.Q.FXFX* o jXMXFXBXBXAXsXT.yX}.3XqXlX@X..^.^._.$.C.0.X b SXFXGXGXFXFXFXFXFXFXFXFXFXFXFXFXFXFXFXFXFXFXFXFXFXFX",
"FXFXFXFXFXFXFXFXVX|.rXT.MXrX  * ZXFXFXAXnXz [.VXFXcX X9XtX X1XUX4X2.B.;.$ x FXFXGXGXFXFXFXFXFXFXFXFXFXFXFXFXFXFXFXFXFXFXFXFXFXFX",
"FXFXFXFXFXFXFXFXFXrX3Xb jXFXx   c FXLXAX+.+.eXFXMXLXMXFXFXLXLXSXgXg.u.=.& c SXLXFXFXFXFXFXFXFXFXFXFXFXFXFXFXFXFXFXFXFXFXFXFXFXFX",
"FXFXFXFXFXFXFXFXFXFXjXMXFXVXrX. . yXSX].K g.hXAXnXCXBXIXxXMXCXmXdX0.w.=.$ %.SXLXFXFXFXFXFXFXFXFXFXFXFXFXFXFXFXFXFXFXFXFXFXFXFXFX",
"FXFXFXFXFXFXFXFXFXFXVXMXFXFXVXT.  p sXy f.u.6XdXmXnXnXnXAXAXAXnX,Xw.8.-.$ '.AXFXFXFXFXFXFXFXFXFXFXFXFXFXFXFXFXFXFXFXFXFXFXFXFXFX",
"FXFXFXFXFXFXFXFXFXFXFXVXFXFXFXNX* . & w V.K.u.s.s.=X2X5X5X2X-Xt.a.B.Y J , iXAXCXFXFXFXFXFXFXFXFXFXFXFXFXFXFXFXFXFXFXFXFXFXFXFXFX",
"FXFXFXFXFXFXFXFXFXLXFXLXFXVXVXFXqX.   1 V.n.U.B.D.B.u.y.y.p.s.s.a.=.-.J 1 mXSXFXFXFXFXFXFXFXFXFXFXFXFXFXFXFXFXFXFXFXFXFXFXFXFXFX",
"FXFXFXFXFXFXFXFXFXVXFXFXFXFXFXVXFXR.X @ K u.V.S.S.S.S.Z.D.S.F.B.8.[ <.$ %.SXCXFXFXFXFXFXFXFXFXFXFXFXFXFXFXFXFXFXFXFXFXFXFXFXFXFX",
"FXFXFXFXFXFXFXFXFXFXFXFXFXFXFXCXSXCX) X @ w ' e.w.k.k.k.j.h.e.=.[ { 2 & mXFXFXFXFXFXFXFXFXFXFXFXFXFXFXFXFXFXFXFXFXFXFXFXFXFXFXFX",
"FXFXFXFXFXFXFXFXFXFXFXFXLXFXFXFXnXSXZXb . . X 1 D J J I Y Y J F G 2 @ >XVXIXGXFXVXFXFXFXFXFXFXFXFXFXFXFXFXFXFXFXFXFXFXFXFXFXFXFX",
"FXFXFXFXFXFXFXFXFXFXFXVXFXFXMXSXAXmXGXGX|.* . X @ # , , < < , # # 4 iXGXFXVXZXLXVXVXFXFXFXFXFXFXFXFXFXFXFXFXFXFXFXFXFXFXFXFXFXFX"
};
