/* XPM */
static char *_ed78b66dbf34f12a6420f61ba82ac38ZQucyIGNas52ouLo[] = {
/* columns rows colors chars-per-pixel */
"64 64 221 2 ",
"   c None",
".  c #3A1F0F",
"X  c #3B1E10",
"o  c #39210F",
"O  c #3D2011",
"+  c #3C393D",
"@  c #442215",
"#  c #4A2619",
"$  c #542A1C",
"%  c #5A2C1D",
"&  c #56271E",
"*  c #5C392B",
"=  c #633727",
"-  c #74342E",
";  c #6A3930",
":  c #793C36",
">  c #682D26",
",  c #441F12",
"<  c #764938",
"1  c #3E3D45",
"2  c #555458",
"3  c #4F4E50",
"4  c #72554C",
"5  c #66635D",
"6  c #796C5B",
"7  c #5B5C64",
"8  c #5A5B65",
"9  c #5F636C",
"0  c #5F6065",
"q  c #62646D",
"w  c #676769",
"e  c #736E6D",
"r  c #79736C",
"t  c #636671",
"y  c #666A73",
"u  c #6A6C75",
"i  c #6A6E79",
"p  c #676D78",
"a  c #6B717A",
"s  c #6E7275",
"d  c #74767C",
"f  c #787678",
"g  c #88413C",
"h  c #8D5F2D",
"j  c #9E6B2C",
"k  c #AB7128",
"l  c #BB7A25",
"z  c #B0752A",
"x  c #97621F",
"c  c #C37F25",
"v  c #974C46",
"b  c #865B4A",
"n  c #90544E",
"m  c #A95956",
"M  c #B35E5C",
"N  c #8F6E58",
"B  c #B4605C",
"V  c #8A796A",
"C  c #977C69",
"Z  c #867C7A",
"A  c #826962",
"S  c #7E807F",
"D  c #BB8335",
"F  c #DC950B",
"G  c #DE9806",
"H  c #CB831E",
"J  c #CA8912",
"K  c #D48A13",
"L  c #D8991B",
"P  c #D78E0F",
"I  c #E59901",
"U  c #E29606",
"Y  c #CB8221",
"T  c #C38126",
"R  c #D39B2B",
"E  c #C8912F",
"W  c #D4A038",
"Q  c #B88E52",
"!  c #9A836A",
"~  c #958068",
"^  c #958A78",
"/  c #8D8779",
"(  c #A38868",
")  c #BA9668",
"_  c #AA9679",
"`  c #B69B79",
"'  c #B08D64",
"]  c #BDA377",
"[  c #C49C53",
"{  c #D3A953",
"}  c #C49A63",
"|  c #CA9D65",
" . c #C09B6C",
".. c #CDA46C",
"X. c #CAA368",
"o. c #D1A56C",
"O. c #D5A96D",
"+. c #DAAC6E",
"@. c #C3A172",
"#. c #CDA673",
"$. c #C8A87C",
"%. c #D5A972",
"&. c #DAAC72",
"*. c #D2A872",
"=. c #D8B479",
"-. c #757A83",
";. c #797C83",
":. c #7D8184",
">. c #7B8A94",
",. c #848383",
"<. c #8B8B8B",
"1. c #878688",
"2. c #958E86",
"3. c #98928A",
"4. c #8C8E92",
"5. c #858890",
"6. c #8E9095",
"7. c #949494",
"8. c #96999C",
"9. c #9C9B9C",
"0. c #969699",
"q. c #A69A86",
"w. c #AF9B94",
"e. c #AFA28D",
"r. c #B9A589",
"t. c #A9A499",
"y. c #B5AA99",
"u. c #BAB09F",
"i. c #9A9EA4",
"p. c #A09FA0",
"a. c #9DAAB4",
"s. c #A4A4A4",
"d. c #A7AAA9",
"f. c #ABADAC",
"g. c #A6A8A6",
"h. c #B4AAA3",
"j. c #ACB2AB",
"k. c #B6B3A8",
"l. c #AEB2B2",
"z. c #B3B4B4",
"x. c #B6B9B6",
"c. c #B7B9B9",
"v. c #B9BBBA",
"b. c #B6B6B7",
"n. c #AEAFB1",
"m. c #CBAE84",
"M. c #C6AC8C",
"N. c #CDB289",
"B. c #D9B787",
"V. c #CCB493",
"C. c #CDBA9D",
"Z. c #C7B59A",
"A. c #D3BD9D",
"S. c #D6BB95",
"D. c #CBAF8C",
"F. c #E2BC8A",
"G. c #CCBCA4",
"H. c #C3B8A7",
"J. c #D2BEA1",
"K. c #DBBDA2",
"L. c #C2BCB7",
"P. c #BCC3BF",
"I. c #DCC29C",
"U. c #D6C29C",
"Y. c #E6C69A",
"T. c #DBC5A3",
"R. c #DEC9A6",
"E. c #DDC9AB",
"W. c #D5C4A8",
"Q. c #CCC4B3",
"!. c #C6C4BD",
"~. c #DBCBB3",
"^. c #D4C8B8",
"/. c #DAD2BC",
"(. c #CDC3A7",
"). c #E2CAA6",
"_. c #E3CDAB",
"`. c #E9CCA5",
"'. c #E6D1AE",
"]. c #EBD3AE",
"[. c #ECD5B1",
"{. c #E7D3B3",
"}. c #F1D5B4",
"|. c #A5BCCD",
" X c #AABCC7",
".X c #ADC2C9",
"XX c #ABC4D4",
"oX c #AECBDC",
"OX c #B1CCDD",
"+X c #B3C8D3",
"@X c #BAC1C3",
"#X c #BBD3E2",
"$X c #B2CDE2",
"%X c #C5C8C4",
"&X c #D8CFC4",
"*X c #DAD5C7",
"=X c #C5CDD2",
"-X c #C8D4D9",
";X c #D5DBDC",
":X c #D9DBD4",
">X c #CFD0CA",
",X c #E1DCD3",
"<X c #E0D9CE",
"1X c #DFE2D8",
"2X c #E3E2DB",
"3X c #C5DAE5",
"4X c #C9DEE9",
"5X c #C8DDE6",
"6X c #D5DDE4",
"7X c #CCE2EB",
"8X c #DDE6EC",
"9X c #D9E3EA",
"0X c #DDECF6",
"qX c #E8E8E6",
"wX c #E5EEF3",
"eX c #EAF4FD",
"rX c #E6F2F9",
"tX c #F2F3F2",
"yX c #FDFEFD",
"uX c #F9F9F6",
"iX c #F1EFEB",
/* pixels */
"                          f ,.9.s.s.9.7.<.                                                                                      ",
"                              Z 9.f.z.z.z.f.s.7.                                                                                ",
"                                  0.s.f.v.v.v.c.l.s.                                                                            ",
"                                    s.d.s.f.c.v.v.v.z.s.                                                                        ",
"                                        z.d.s.z.v.v.v.v.f.7.  f                                                                 ",
"                                          v.z.s.n.v.v.v.v.z.9.f 4.                                                              ",
"                                            v.c.d.d.c.v.v.v.v.s.,.s.                                                            ",
"                                              v.v.f.s.c.v.v.v.v.f.z.s.f                                                         ",
"                              ,.0.s.d.d.f.l.s.g.v.v.n.s.c.v.v.v.v.v.c.7.<.                                                      ",
"                              Z 1.<.8.f.c.v.v.z.c.v.v.l.g.c.v.v.v.v.v.d.7.                                                      ",
"                                      ;.9.c.v.v.v.v.c.z.d.s.c.c.c.v.v.c.z.9.7.9.7.                                              ",
"                                    z.z.f.c.v.v.z.h.k.H.r._ y.c.v.v.v.v.v.z.c.n.6.,.                                            ",
"                                z.c.v.v.v.v.z.h.G._.[.[.].B.` h.v.v.v.v.v.v.v.f.1.s                                             ",
"                            d.z.v.v.v.v.v.z.u.E.[.[.].'.(.S.=.` z.k.s.v.v.v.v.v.v.z.s.                                          ",
"                        7.z.v.v.v.v.v.v.z.k._.].[.}.E.y.3.u.M.) q.f.q.z.v.v.v.v.v.l.z.f.                                        ",
"                      9.z.v.v.v.c.z.f.s.y._.]._.E.W.y.h.t.t.t.3.V q.@.y.v.v.v.v.v.p.f 0.p.                                      ",
"                    9.z.v.v.l.i.5.-.a f Z.T.].C.e.q.` @.@.#.@.` _ ^ @.@.j.v.v.v.v.v.9.f   s                                     ",
"                  9.c.v.z.8.;.i y d :.<.y.T.[.R.m.@.o.} | +.+.+.o.` _  .^ s.b.v.v.v.v.s.                                        ",
"                7.z.c.s.:.u u q u s.e.` ` I.[.[.Y.+.O.r.G.m.O.+.+.+.@.! 5 t ;.8.f.z.v.v.d.                                      ",
"                z.c.8.d u i u :.t.` ..O.+.B.{.[.`.=.o.~.tXqXV.%.+.+.+. .5 t 9 9 y d 1.6.0.7.                                    ",
"              s.b.4.a i u q s s.3.$.o.) o.#.T.[.].F.*.&X,.>XqX$.+.+.&.%.6 y a u y y q 9 t d 8.                                  ",
"            7.b.4.i t 7 2 1 2 4.  K.A.^.V.o.N.[.].F.O.^.l.9XqXS.%.=.+.&.( u i i u e u u 9 t 1.8.                                ",
"            f.8.t 8         w     Z./.qX,X$.N.[.[.Y.$.x.3X=XQ.).U.Y.&.&.) u i y V ) ~ y y 9 a 4.                                ",
"          9.s.w             e   ,.u.,XS %XV.` q.^ e.!.5X4X5X%XE.R.].B.&...e y V } } ) e a t t -.1.                              ",
"          s.s               w   s.k.,X%X=Xq.V q.q.2.-X7X5X7X=XJ.).[.`.&.o.V e  .) X...r i u q i d                               ",
"        <.<.                2 4.z.H.L.-X3Xv.W.[.}.W.-X7X7X4X%XE.].].].B.| ( C | X.} ..r i a q y u                               ",
"        e                   w f.z.G.%X7X4X-X{.[.[.E.P.4X7X=XQ.[.[.].[.B.o.) ' | O.} ..r i a y q i q                             ",
"                            7.v.t.G.-X7X4X3X~.[.[.].G.d.!.Q.'.[.[.[.].m.%.O.X.} %.| ..e i i i 9 u q                             ",
"                            f.n.1.E.%X7X4X=XG.[.[.).N.D.J.[.[.[.[.[.).#.&.+.o.} O.O.) u a i i t t u                             ",
"                          7.v.6.1.].E.!.%Xk.Z.].I.$.S.].T.U.[.[.].[.S.*.+.+.O.| &.&.( u i i i u 9 u                             ",
"                          s.l.-.2.[.].'._.T.V.T.m.Y.[._.e.^ E.[.].[.N.O.+.+.+.O.+.*.r y i i i i t y 7                           ",
"                          f.8.u ,._.[.[.[.T._.S.I.[._.e.z.qX&X'.].[.N.O.&.+.o.+.+.' u i i t i i y q q                           ",
"                          f.:.u f A.[.[.'.T.[.{._.E.<XtXyXyXiX~.].[.N.%.+.+.' ' ( e i i i 2 8 i u q q                           ",
"                          d.d y <.V.I.[.R.r.u.^.&XqXyXyXyXyXtX^.).].B.O.&.&.! t y i i i i q   q u t q                           ",
"                          s.a p r ] ` ).R.H.qXuXuXtXiXqX2XL.Z 4 ` }.S.o.&.&.! u i i i i i u     q y 9                           ",
"                        <.i.i q 3 $.} $._.&XyX>XV 4 4 4 * @ @ % b _.S.o.+.+.! u y i i i i i 7     q q                           ",
"                        <.8.i 8   S.%.) V.J.H.A $ $ , X @ . o # * V.I.o.+.+.! u 8 u i i i i q     8 q                           ",
"                        7.7.t       S.X.@.A.( $ % $ X X O o X O $ _ T.o.+.&.! p 7   y i i i y       8 8                         ",
"                          4.7         N.$.r.D.= % # X X @ O X X # C T...+.&.~ p 9     y i i y         3                         ",
"                          1.          2.2._ U.< % $ X X O O O . @ N ).#.+.+.V i q     0 u i y         +                         ",
"                          ,.          s.;.^ T.N % $ O . . o o # > b R.#.+.o.6 t y       q i u                                   ",
"                          f           d.-./ J.` % % @ . @ @ # g g n R.%.+.X.5 7 q       8 u y                                   ",
"                                      d.-.d Z.M.= % $ ; v - g M m n R.B.+.) s >.-.        y y                                   ",
"                                      s.-.i y.A.< % > m M v m M M n T.F.+.r..XOX|.        q q                                   ",
"                                      i.;.u q.T.4 % : M M M M m v b T.F.O._ XXoXXXa.        8                                   ",
"                                        1.y 2.E.b $ < M M B m : - C _.m.o.) .XXX|.OXa.                                          ",
"                                        <.y V {.N $ ; M M B v > b ^._.m.| ..j.XX|.OXOX^                                         ",
"                                        4.y 5 _.N V w.n M m : : y.2X_.m.} &.Z. X|.OXOXq.c l k                                   ",
"                                        <.a 3 C.C L.%X; : - : w.tX<X_.m.| B._.k.-X#XOXt.T Y T l k j h                           ",
"                                          d 3 ^ q.qX%X% & 4 h.uXqX~.[.m...Y.[.W.9X0X#Xj.T Y Y Y Y Y l k                         ",
"                                          d 2 2 3.qXL.V V *XtXiX~.].[.m.B.].[.~.wXeX7Xl.D Y Y Y Y Y Y Y c l k x x h             ",
"                                            2 3 e.:XqXtXuXyXqX^.'.[._.S.].).).~.wXeXrX@XD H H H H Y Y Y Y Y Y Y l j             ",
"                                            3 r _.E./.,X2X*X~.].[.).e.G.[._.T.&XeXeXeX:XE H H H H Y Y Y Y Y H T _ d./           ",
"                                              ^ [.].]._._.'.[.].I.] s.k.]._.T.:XeXeXeX1XR K H Y Y Y Y Y Y H H D  X$X|.          ",
"                                                C.].[.[.].).].[.B.r..Xk.T.).W.qXeXeXeX:XL U F K H H Y H Y H Y _ OXOXOX|.        ",
"                                                  _ C.A.A.A._.[.S.^.3Xx.J.T.Q.rXeXeXeX*XL I I I G F P K H Y T j.$XOXoXOXa.      ",
"                                                    C.'.].[.[.[.G.;X0X@XJ.C.:XeXrXeXeX/.F I I I I I I U U P Q .X3XOXOXOXXX      ",
"                                                    e.{.[.[.].~.:X6X9X-XW.H.8X6X-XwXeXT.G I I I I I I I I U ] 7XrX9XOXOXOXa.    ",
"                                                      J.{.[.T.k.rXeX6X;XQ.>X;X8X-X-XrX=.I I I I I I I I I F (.eXeXeX3XOXOX|.    ",
"                                                              t.rXeX8X=X=X-XwXrX6XQ.Q.{ I I I I I I I I I R 1XeXeXeX0XOXOXXX    ",
"                                                              [ wXeX-X6X=X8XeX8X;X{ [ R I I I I I I I I I { wXeXeXeXrX#XoXOXi.  ",
"                                                            J R 2XwX%X9X6X9XeX6X*XL F F I I I I I I I I I =.eXeXeXeXeX4XoX+X    ",
"                                                            G L *X*XZ.6X8X9XrX8X:XL I I I I I I U U I I G U.eXeXeXeXeX9X+X      ",
"                                                          J I G U.B.O.wXrXwXeXeXqXW I I I I I I F G I I F /.eXeXeXeXwX          "
};
