/* XPM */
static char *_c5c1cdb6d6e4c8193567a095ba8a53cAytZszjNtNgcEVhZ[] = {
/* columns rows colors chars-per-pixel */
"64 64 251 2 ",
"   c #030105",
".  c #0A0204",
"X  c #03020B",
"o  c #0A050B",
"O  c #0C090E",
"+  c #03090E",
"@  c #160A08",
"#  c #0C0A13",
"$  c #070711",
"%  c #130D13",
"&  c #1A0E12",
"*  c #07141C",
"=  c #161115",
"-  c #1C1414",
";  c #14131A",
":  c #1B141A",
">  c #1A191D",
",  c #1C110E",
"<  c #25130A",
"1  c #221615",
"2  c #241719",
"3  c #241B1B",
"4  c #2A1D1D",
"5  c #281B16",
"6  c #2C1510",
"7  c #2C211E",
"8  c #36241C",
"9  c #041624",
"0  c #0A1C2B",
"q  c #071927",
"w  c #181C24",
"e  c #0A1F30",
"r  c #231D22",
"t  c #2A1F22",
"y  c #231923",
"u  c #1B2229",
"i  c #0E2131",
"p  c #172836",
"a  c #0E222D",
"s  c #2C2323",
"d  c #2B2C2D",
"f  c #282629",
"g  c #322424",
"h  c #352925",
"j  c #3B2B25",
"k  c #342B2B",
"l  c #3B2C2B",
"z  c #352627",
"x  c #3D312D",
"c  c #33312C",
"v  c #272D33",
"b  c #332D33",
"n  c #2C3438",
"m  c #333233",
"M  c #3B3433",
"N  c #38393B",
"B  c #1A201E",
"V  c #472B17",
"C  c #412E29",
"Z  c #44322D",
"A  c #48352D",
"S  c #453529",
"D  c #443433",
"F  c #493633",
"G  c #4C3B34",
"H  c #4C3C3B",
"J  c #443A38",
"K  c #533D35",
"L  c #513E39",
"P  c #5B3D31",
"I  c #523A27",
"U  c #4A413C",
"Y  c #54433C",
"T  c #5A453C",
"R  c #5A4639",
"E  c #5B422E",
"W  c #66493A",
"Q  c #725239",
"!  c #293946",
"~  c #343D42",
"^  c #1C2F40",
"/  c #453E46",
"(  c #2E4547",
")  c #32474A",
"_  c #344A4C",
"`  c #394D4C",
"'  c #394546",
"]  c #3A514E",
"[  c #3B4D52",
"{  c #364951",
"}  c #3C5253",
"|  c #3E5459",
" . c #4C4443",
".. c #4A4949",
"X. c #554543",
"o. c #5A4642",
"O. c #5D4B44",
"+. c #5B4D4A",
"@. c #544B49",
"#. c #5A524D",
"$. c #575147",
"%. c #465758",
"&. c #595857",
"*. c #4F4F52",
"=. c #634C43",
"-. c #654E46",
";. c #6B5344",
":. c #64524B",
">. c #6B554C",
",. c #685749",
"<. c #745A4A",
"1. c #635552",
"2. c #6C5B54",
"3. c #665A57",
"4. c #735C54",
"5. c #7A5E53",
"6. c #79634C",
"7. c #6D635D",
"8. c #66635C",
"9. c #7C6355",
"0. c #75635C",
"q. c #7C645A",
"w. c #776758",
"e. c #7D705F",
"r. c #4A5E61",
"t. c #4B6265",
"y. c #586767",
"u. c #5A7273",
"i. c #696766",
"p. c #7C6C63",
"a. c #786B66",
"s. c #7B736A",
"d. c #656E75",
"f. c #697678",
"g. c #787B79",
"h. c #6B746B",
"j. c #665E62",
"k. c #31443E",
"l. c #855D45",
"z. c #83665A",
"x. c #846A5C",
"c. c #866958",
"v. c #89725C",
"b. c #8F6E54",
"n. c #A77859",
"m. c #B17E5F",
"M. c #866C63",
"N. c #8C7363",
"B. c #8C756A",
"V. c #88776A",
"C. c #927564",
"Z. c #947B6A",
"A. c #9B7C6C",
"S. c #937A66",
"D. c #877B74",
"F. c #93776F",
"G. c #A17D64",
"H. c #81553C",
"J. c #76837C",
"K. c #99836C",
"L. c #8B8579",
"P. c #9C8473",
"I. c #978679",
"U. c #988C76",
"Y. c #AC8869",
"T. c #B78967",
"R. c #A18372",
"E. c #A48C7B",
"W. c #A68C77",
"Q. c #A8927C",
"!. c #B79375",
"~. c #B08C65",
"^. c #C79875",
"/. c #CE966F",
"(. c #D4A27C",
"). c #E6A87C",
"_. c #767E81",
"`. c #6D8483",
"'. c #7B8483",
"]. c #788A88",
"[. c #7A928E",
"{. c #7D9290",
"}. c #868985",
"|. c #978D84",
" X c #8B948B",
".X c #989389",
"XX c #869997",
"oX c #979B95",
"OX c #A89788",
"+X c #B49A89",
"@X c #A49C94",
"#X c #A99388",
"$X c #9AA299",
"%X c #8CA09F",
"&X c #B7A38B",
"*X c #A7A497",
"=X c #BBAC9B",
"-X c #B7A696",
";X c #B1A794",
":X c #98ABA9",
">X c #99ACAE",
",X c #A7ABA5",
"<X c #B7ACA2",
"1X c #ACB3A9",
"2X c #B7B5A9",
"3X c #AAB8B6",
"4X c #B7BBB5",
"5X c #ADAEB2",
"6X c #C4AB96",
"7X c #C8B49C",
"8X c #D4B799",
"9X c #CEA989",
"0X c #E9AB84",
"qX c #EAB58B",
"wX c #E7BA95",
"eX c #F3B890",
"rX c #CCBCAC",
"tX c #C5B6A6",
"yX c #D4BBA5",
"uX c #C4BEB5",
"iX c #CCBAAD",
"pX c #B9C3BC",
"aX c #EFC399",
"sX c #D7C4AC",
"dX c #C7C5B9",
"fX c #D7C8B8",
"gX c #D3C7B2",
"hX c #E4D2BC",
"jX c #ECCDAF",
"kX c #E7D2AC",
"lX c #B9C4C4",
"zX c #C9C8C3",
"xX c #D3CCC5",
"cX c #D9D4C8",
"vX c #D8DAD2",
"bX c #CDD4C9",
"nX c #E7D8C8",
"mX c #E9DDD3",
"MX c #EDD9C5",
"NX c #ECE1CD",
"BX c #F5E4CD",
"VX c #ECE4D3",
"CX c #E9E6D8",
"ZX c #F2E4D3",
"AX c #F4EADA",
"SX c #FBECDB",
"DX c #F5E9D7",
"FX c #FDF4DD",
"GX c #F6EDE2",
"HX c #FEF4E4",
"JX c #DAE1DA",
/* pixels */
") ) _ _ _ _ ` ` ` ] _ _ ` } [ %.y.d.f. XoXoX XJ.J.J.oXoX}. X$X X}.}.g.i.d.d.f.d.d.f.}. X XoX1X:XXX[.].XXXX:X>X3X5X4XuXdXvXJX3X:X",
"( ) _ _ ` ` ` ` ` ] _ ] ` [ [ %.&.i.h.'. X$X$X XJ.}..X*X1X$XoX X X X'.d.d.d.d.f.g.}.}. X,X1X1X,XXXXXXXXXXX>X>Xi.N i.zXvXvXpX3X:X",
"( ) _ _ ` ` ` ` } } ` } ` ` %.%.&.i.i.g.}.oX*X.X}.}. X,X2X*X*X}.}.oX}.d.d.f.f.g.'. XoX*X,X1X1X$XoX$X:X>X3X{.N B N i.zXzXpX1X3X3X",
"( ( ) _ ` ` ` ] } } } %.[ [ %.*.&.8.i.g.L. XoX*X*XoXoX<X4X2X2X*X$X$X}.f.u.f.g.J. XoX*X1X2X4X2X$XoX:X3X3Xy.u u &.$X2XzX2X4XpX3XlX",
"( ( ) ) ) _ [ [ } | %.%.%.%.%.N 3.i.s.s.D..X@X*X*X.XL..X2X2X*X*X*X}.g.h.h.h.J. X$X2X2X2XdXdX2X*X1X,X_.N w N i.2X2XzX4X1X4XpX3XpX",
"( ( ) ) ) ) ` [ [ } %.%.%.%.%.d U 2.D.L.s.L.L..X=X;X-X2XtX<X=XtX.XL.|.L.L.L.L.L.*X<XuXdXdXuX4X2X}...f d N g.zX2X2XdX4X1X5X,X3X4X",
"( ( _ _ _ _ [ [ [ [ %.%.%.%.%.d x 2.I.*X.X|.*XuXtX=X=XtXtXgXgXtX=XtXgXtXrXtXgXfX<X2XdXcXuX@XD.#.k c m  .}.zXxX@XdXdX4X1X5X,XpXzX",
"( ) _ _ { { [ [ | } %.%.%.%.&.N V.;XOX.X.X<X<XV.V.#XU.#X#X+X-X;XtX7X-XK.I.V.OXrXcXgX2X*XL.1.U j U D #..XxXcX=X<XxXdX2X3X4XzXbXCX",
") _ } } | | | | | %.%.%.%.y.y.8.|.p.p.I.I.s.w.D.;XtXsX7X=X&XfXOX;X2XtXOXI.;XrX=X-XtXcX-XOX+X#X=X@X.X<XnXmXnXtXfXdX4XdXdXbXJXvXbX",
"_ ] } | %.r.t.t.t.t.r.r.y.y.i.g.$.1.D.p.:.:.L.-XtX=X=XQ.E.E.OX=X-X@XdXtX;XfXgXrXtX-X-XiX-XQ.yXMXmXmXmXnXfXrXrXxXuXdXbXbXvXCXcXxX",
"| } %.%.%.t.y.u.u.f.u.y.d.d.f.i.1.L.1.U X.:.OXtXfXtXQ.E.e.w.w.L.I.U.U.I.+XtXtXhXnXfX+XOX=XOXv.=XfXnXnXfXrXrXnXxXdXdXbXbXvXcXzXzX",
"t.t.t.t.t.t.t.u.u.`._.f.f.g.f.*.3.#.M U J l Y I.tXgX=XV.w.O.s.V.e.p.e.K.-X7XhXrXrXrX<X;XOX-X;XOXfXfXMXMXhXfXZXxXdXuXdXdXxXxXdXzX",
"f.f.f.u.u.u.u.u.u.f.`.].].'.&.*.i.M M J M x j V.&X7X-XV.e.1.$.i.8.,.w.K.6XsXkX&XQ 6.V.OXOXOX=X;X-XsXhXhXnXNXnXcXxXzXzXxXvXcXfXxX",
"J.`.].].].`.`.J.`.J.`.].XX].' ..N m N ..i.s.D.I.x.K.E.R R #.3.i.8.7.O.;.W.7X9X8X6XK.S.S.I.#X#X+XS.6X7X=XhXNXfXfXxXzXxXxXcXxXxXcX",
"`.].[.XXXXXXXXXX[.[.[.{.XXf.~ n f f *...M H 2.p.W <.<.R A 1.3.3.j.3.U S <.!.!.9X8X8XyX&XQ.Z.P.-X&X7X7X7XNXZXnXnXdXdXdXxXxXxXcXNX",
"].[.{.XXXX:X>X:X:X>X%X:X'.~ N > w d ..4 . . @ =.R ;.;.A S #.#.i.3. .X.C Q !.Y.!.W V Q 6XyXR.x.W.+XW.-XgXDXNXDXVXmXcXvXmXCXCXAXCX",
"XX{.XXXX:X>X3XpX3X3X5XoX&.f d > M  .l . 5 j @ < A 2.4.G 8 =.2.w.2.1.o.j C.yXW.I < V < I jX8XS.E.+XQ.#XfXSXnXnXnXnXVXAXAXAXCXVXmX",
"%X>X>X>X>XXX{.].:XlXzXoXv d ; r J H @ F I.B.0.< 5 0.V.Y G ;.<.9.9.w.-.S W.sXZ.V c.6X+XT S.sX&XS.#XP.-XnXmXcXfXfXhXmXDXAXCXVXcXdX",
">XXX].].r.n p q ~ '.lX_.f w ; d 2 1 @ I.V.4.F.G < >.p.K R 6.b.C.C.S.S.W b.8X<.5.6XC.tXtXV Q.6XK.E.E.OXcXCXVXAXVXDXVXnXcXcXcXnXmX",
"`.p * 9 * ! [ n v ~ ` u w > ; % J H < V.0.K F.S @ C =.;.c.K.Y.Y.Y.8X^.Y.n.b.E 9.+XI U.MXW E Q.6.K.U.L.tXFXDXSXDXDXZXZXDXAXVXVXVX",
"p 9 i a p { { p n ! u w u ; ; = 1.7.< >.F.V.,.< 6 8 R C.!.^.9XqXwXaXwXaX^.Q c.W A.6XyXQ.;.sX6.I K.K.E.7XZXmXmXAXSXSXSXDXDXAXCXCX",
"9 i i 0 ! ) ! p p ! p w ; ; % r +.7.Z @ G C < 8 V P ;.G.9XwXqXqXeXeXaXaXaX(.n.b.I l.v.V W.SX6X<.P.N.U.7XZXZXSXAXZXZXDXDXVXCXCXAX",
"0 0 i p ! ! p 0 i p v w w ; # f J O.1.Z @ 8 T S P W Q l.^.0X0X).qXqXqXqXeXwX^.!.^.<.I C.kXMX8X6.v.w.Z.tXGXAXGXVXVXAXDXAXAXDXAXAX",
"0 0 p p ^ ! i i e u p w # # O M M x X.X.O.0.-.C W W W l.^./.).).).0XeXeXqXeXqX^.wXjXjXsXkX8X&XK.E :.I.<X4X,X2XCXCXGXGXCXmXCXCXCX",
"p p p p i i i 0 p u v w ; o M i.U s l Z X.o.C K R P W l.T./.qX).).).qXeX).).0XqX^.jXjX8X8X!.8X-XO.U D. XJ.}.oX XbXvXzXzXvXcXvXCX",
"p i i 0 0 0 0 q i v p w # f i.D.+.g 2 2 g j C K P Q Q H.m./.).0X(.).0X0X).).0XeX(.!.8X9XS.&XhXnXOXs.oX X}.'.].{.[.XX'.}.oX$X1X4X",
"i 0 9 9 q q 0 0 0 u u > > &.s.s.+.g 2 g t 1 j K W W W Q n.n./.).)./.).).).).0XqXeXT.G.P.P.gXSXHXfX#X<X@X}.'.J.].].[.].].].'.].}.",
"0 9 9 q q q 0 0 0 u v u m &.i.s. .M s 4 z H -.Y R W ;.l.Y.n.T.(././././.).).0XwXwX^.Q ;.+XnXHXHXmX#X#X@X}.'.g.f._._.f.'.g.g.'.'.",
"9 9 9 q q q q 0 p v f f M @.i.s.@.c 4 M 3.p.>.T 9.#XR.<.b.n.n.^.T.T.n.~.0XjXjXwXaXjX&XN.#XnXHXHXSX-XL..Xg.g.g.f.g.f.g.g.g.g.'.g.",
"* * q 0 q q q q p w w v k @.i.a.$.J  .s..XV.G T OX-Xv.W W l.b.Y.n.n.Y.T.(.jXFXjXwXjXBXrX=XnXSXDXSXgXL.L.D.g.g.g._.g.}.}.'.g.f.i.",
"9 9 9 q q q q 0 q q v m d  .3.a.3.$.s.*X@X+.j e.#X6.E <.5.l.l.G.b.T.!.!.^.9XBXFX8X8XZXZXMXMXFXDXBXnXOXL.L.L.D.g.g.h.h.y.&.%.` k.",
"w 9 9 9 9 9 9 9 9 u u f M J 3.i.#.8.L.@XD.Y Y I.V.w.w.e.B.B.B.N.c.R.+X6X9X!.sXSXBXtXHXAXMXhXDXBXsXrX|.2.1.&.&.*.*.....' ' ' ( k.",
"t f r w w w * q * w w f m  .3.#.#.3.s..Xa.T 2.I.D.D.D.3.H k d k l H X.w.-XsXsXBXHXBXZXNXBXBXNXNXrX@Xa.$.@.......' ' ' ' ' ' ~ ~ ",
"X.D M M k d f u u w w f m J .. .@.3.a.D.a.w.0.0.D.D.*.w # # ; ; w > s g x ;XFXSXHXSXnXNXZXMXhXfXcX.X#. ... .' ' ~ ~ ~ N ~ N n n ",
"1.:.1.+. .M M M M m d s k  .X.H X.#.3.a.s.V.V.V.s.#.%   o X X ; ; w d *.8.D gXHXHXZXnXSXZXnXhXfXdXD.U N U N N n N N n n n n v v ",
"p.0.:.:.p.4.X.D l l l l l Z h x D  .#.7.a.a.V.V.8.s   o O + + + * * > *.2Xa.w.GXSXnXZXZXMXfXtXtXs.@.m m m m m n v v v v v v d v ",
"2.w.w.q.I.F.B.B.p.4.>.O.Y o.j < 4 M  .1.7.a.V.s. .O o o     X   X $ + d &.i.7.fXmXNXAXZXZX=X0.1.D c m m d m m v n n n m d d d d ",
",.<.w.9.9.x.N.M.N.B.F.B.I.OXw.j j x U #.3.0.a.i.M   o X X     + X $ $ + = s J 2XVXNXnXnX=Xw.Z Z J M N N m m m m m m m c c c c c ",
"9.9.x.z.5.z.N.N.N.M.A.A.P.E.K.w.C 4 g U 1.3.7.3.s o       +   X X X X $ o = k 2XHXNXZXgXp.Y D U J M M M M M m M k k k d f s 7 7 ",
"v.C.N.C.C.C.C.A.R.C.R.A.A.W.#XP.o.4 - g U #.3.@.3 o   X   X X X X X X X X O g <XNXMXBXV.8 C j j h h h g s s 7 s 7 s g x M J H U ",
"6.9.v.C.N.Z.S.z.v.C.A.A.C.A.R.W.e.g 1 , M 3.3.#.3 o X       + X X   X     O l uXnXnXyXv.<.=.=.G o.2.Y Y G G F x +.1.:.:.1.1.0.1.",
"9.5.5.z.x.c.z.c.c.N.C.A.C.A.R.W.E.Y < , g +. .#.b o     o   X + $ $     o @ 1.nXMXhXQ.Q.Q.#XF.|.I.I.Z.I.L.V.p.V.p.p.0.a.0.0.0.:.",
"5.M.z.5.q.9.9.x.x.v.N.Z.A.A.A.R.P.4.5 5 g +.3.@. .:         + + # # O o @ j <XnXMXyXP.R.Q.R.N.Z.K.K.Z.V.M.V.M.V.M.p.p.p.0.0.0.2.",
"<.M.M.<.5.q.q.q.q.x.M.C.Z.S.A.A.P.V.8 < l H 1.1...d : O . o X X % = % & 4 D.rXnXfX+XW.W.#XQ.E.A.P.Z.S.N.x.q.w.x.M.M.M.q.4.4.4.4.",
"-.>.>.>.>.>.>.<.4.9.z.v.C.C.A.R.P.P.:.< j o.H X.@.N f 3 % o O O   O & l p.-XfXhX-XE.E.+XP.S.P.S.Z.B.B.N.x.9.x.x.M.9.5.4.2.4.2.:.",
"=.T T =.=.=.=.=.;.<.5.5.z.c.N.A.C.R.V.j 8 3.D 2 M N M m r : % o % y D 1.I.-X-X6XC.P.Z.W.S.z.Z.S.M.M.M.B.x.z.M.q.9.4.4.4.>.>.:.O.",
"Y Y T T T =.=.W ;.>.<.;.5.<.z.v.v.Z.B.G 8 2.F . . - 3 f z b f : f N @.7.p.8 6.7Xz.N.c.z.S.S.K.C.;.R >.M.q.q.5.q.5.9.4.4.:.O.-.T ",
"j G Y L Y T W =.W ;.>.;.<.>.<.9.9.Z.P.C C D.F @ - - . o % y r w r f : @ 5 8 V.Q.9.z.x.5.5.v.z.C.B.z.M.9.-.q.4.4.4.4.>.>.:.-.:.T ",
"j l F L L L T o.=.T T T =.-.>.4.5.q.q.8 A D.H @ k b X X X X $ X o   o . h >.OXN.9.z.9.9.9.z.z.x.M.9.4.<.4.<.,.4.2.:.>.:.O.O.1.-.",
"Z x D F F G L L L Y T o.o.Y T o.:.:.:.j Y p.J s f > ~ X $ $ o o X o O J , 0.=X9.;.<.<.<.5.x.5.4.<.9.5.>.>.>.T T 2.:.:.-.+.O.+.X.",
"D D F F Z Z F G F F F G H G L L H D l 4 +.3.l k o % }.> O % O o X   r }.. 2.tX,.;.;.W ;.>.>.>.q.>.=.-.-.=.:.,.-.:.:.:.X.o.+.:.o.",
"x D J D l j C D D D D D D l g 4 4 2 - s a.@.4 l s .  .b   . . . o   = 3.l OX;X,.;.<.;.;.=.R =.p.4.T T T G A F G G G G D H H H H ",
"l l l l j l l l l l l l s 4 1 1 2 k t 2 i.+.h l k . M i.o b : y % > i.@ D OX<X,.;.;.R W R R S S :.>.:.:.O.Z 8 F Y F x Z D g 4 g ",
"j h h g g g z z z s s s s s s s s z 2 l s.Y 8 Z g . % b / > N f b k #.@ h D.rXF.W W W =.R T T T G o.O.-.:.o.G Y Y H D x H H J D ",
"7 s g 7 2 2 s s 3 3 2 3 s s r : & 4 g H M.G 5 7 h @ . O % # b X f O . z @.2.-X-XI.2.R R K O.-.Y Y Y Y Y o.:.O.Y L Y F g l D M 4 ",
"7 4 2 2 - - : = = % % % % # # O s D U o.2.j 5 g l k O X $ X X # o @ k #.l Y 2.V.#XM.,.Y C Y >.-.G G G L o.:.O.o.Y o.o.J D l h 4 ",
"1 1 1 - - = = % % O # % # X # = s H +.O.Y 8 8 j l M k ; X X X X % M X.D 5 5 F O.0.4.,.o.G A L O.Y G G A Z G O.T o.O.O.Y Y F D g ",
"- - - = % % # # # # # # # + + # : M X.J l 5 8 g h k k f y : w f M J J J l g 7 8 A G L G F Z Z F G L F A G L G Y o.Y Y X.X.H F D ",
"- = = % % # O # # # # # # $ o # O r k 4 4 7 7 7 h g z k k g k M J D D D H H D h j Z Z D F F F Z A G G F F Y Y Y Y Y Y Y H L H H ",
"= % % # # # # # # # # # # # # # # # = = t g 4 s z z g g g z z l k k l l x H H D C Z Z l C D D D Z Z F F Z Z G G H Y O.X.F H F H ",
"= # O O O # # $ $ # # # # # # # ; # ; 3 t s 2 4 s g z g s g z l l g g z l z z l l l l l l l l l C Z C Z G j 5 g x x G X.H F l Z ",
"= # O O # # $ $ # # # # # % ; ; : : > 4 3 4 1 1 t t s g g 4 4 z g s g g z z g g l l l z z z z l l l l l M x 7 1 4 5 7 j l D l z ",
"% O O # # # # # # # # # # % ; : : - - 1 1 2 2 1 3 r r t t t 4 2 2 t t 4 2 t t 4 z l z 4 4 g g z z z l h g x M 4 , - 1 2 7 l C g ",
"# O + # # # # # # # # # # % ; : - , @ 1 , , 1 2 & t f y 3 r t 2 1 2 4 4 2 2 2 4 4 z g 2 2 g g g g g g g g s s k - 3 7 g z g C l "
};
