/* XPM */
static char *result[] = {
/* columns rows colors chars-per-pixel */
"64 64 123 2 ",
"   c #624125",
".  c #674629",
"X  c #694729",
"o  c #674A2E",
"O  c #6C4C2D",
"+  c #744E2D",
"@  c #784F2E",
"#  c #75512F",
"$  c #78502E",
"%  c #674A32",
"&  c #6B4F35",
"*  c #764F30",
"=  c #6E5136",
"-  c #6D523B",
";  c #765230",
":  c #7D5532",
">  c #7E5836",
",  c #7A5639",
"<  c #7D5A3D",
"1  c #464646",
"2  c #484747",
"3  c #484847",
"4  c #4C4C4C",
"5  c #564D45",
"6  c #5A4E44",
"7  c #534E4A",
"8  c #5A5047",
"9  c #56504B",
"0  c #5A5148",
"q  c #4F5050",
"w  c #535353",
"e  c #5C5C5C",
"r  c #655343",
"t  c #695643",
"y  c #6D5843",
"u  c #7F5D41",
"i  c #605F5F",
"p  c #7F634C",
"a  c #636363",
"s  c #676768",
"d  c #6C6C6C",
"f  c #747474",
"g  c #7B7B7B",
"h  c #805732",
"j  c #855C35",
"k  c #895F37",
"l  c #855D39",
"z  c #895F39",
"x  c #8A6037",
"c  c #86603C",
"v  c #8C6239",
"b  c #805E44",
"n  c #836145",
"m  c #8B6543",
"M  c #8F6A46",
"N  c #83644B",
"B  c #8F6D4C",
"V  c #906A46",
"C  c #926D4A",
"Z  c #816752",
"A  c #846953",
"S  c #8A6C54",
"D  c #856D5A",
"F  c #8A6F59",
"G  c #86705E",
"H  c #8B715C",
"J  c #917051",
"K  c #967A5E",
"L  c #8B7462",
"P  c #8B7867",
"I  c #8C7B6D",
"U  c #907762",
"Y  c #977B61",
"T  c #917D6C",
"R  c #96806F",
"E  c #9D846C",
"W  c #998473",
"Q  c #9E8A76",
"!  c #9C8B7D",
"~  c #A28A74",
"^  c #A28E7C",
"/  c #A3907D",
"(  c #828282",
")  c #8E8E8E",
"_  c #9E8D80",
"`  c #9C928B",
"'  c #959595",
"]  c #999693",
"[  c #9C9896",
"{  c #9D9D9D",
"}  c #A29283",
"|  c #A4978C",
" . c #A5998E",
".. c #A69A91",
"X. c #A89D93",
"o. c #A79F9A",
"O. c #A89F9A",
"+. c #ACA49D",
"@. c #A4A4A4",
"#. c #ADA6A1",
"$. c #AEA8A3",
"%. c #A6A7A8",
"&. c #ACACAC",
"*. c #B1AAA5",
"=. c #B3AEAA",
"-. c #B3B0AE",
";. c #AFB0B0",
":. c #B4B4B4",
">. c #B8B6B4",
",. c #B9B8B7",
"<. c #B7B7B8",
"1. c #B7B8B8",
"2. c #BCBCBC",
"3. c #C5C5C5",
"4. c #C8C7C7",
"5. c #CBCBCB",
"6. c #D3D3D3",
"7. c #DDDDDD",
"8. c #E2E2E2",
"9. c #EBEBEB",
"0. c #EFF0F0",
"q. c #F2F2F2",
"w. c None",
/* pixels */
"w.w.w.w.w.w.w.w.w.w.w.5.5.3.3.5.5.5.5.5.3.2.2.@.%.,.#.T Z : *     : b L | -.2.<.&.<.2.3.5.5.5.5.5.5.4.5.5.w.w.w.w.w.w.w.w.w.w.w.",
"w.w.w.w.w.w.w.w.w.w.5.5.5.5.5.5.5.5.5.3.,.,.2.-.| F , * p : ; X X ; , A ; b W =.2.2.2.,.2.5.5.5.6.5.5.5.5.5.w.w.w.w.w.w.w.w.w.w.",
"w.w.w.w.w.w.w.w.w.w.5.5.5.5.5.5.5.5.2.%.=.2.=.L u Z @ b X.C v ; $ k J ..< * A N _ <.2.,.&.>.5.5.5.5.4.5.5.6.w.w.w.w.w.w.w.w.w.w.",
"w.w.w.w.w.w.w.w.w.5.5.5.5.5.5.5.5.2.@.&.2...b + b | : j V v v $ * v v V j , | u @ F =.2.<.@.;.5.5.5.4.4.5.5.5.w.w.w.w.w.w.w.w.w.",
"w.w.w.w.w.w.w.w.w.5.5.4.5.5.5.5.2.%.%.<.} u N : l M $ j z v v ; ; v v v j $ V k ; Z F +.2.:.@.:.6.5.5.3.5.5.5.w.w.w.w.w.w.w.w.w.",
"w.w.w.w.w.w.w.w.5.5.5.3.5.5.5.5.&.&.2.} * D } v z z @ j v v v ; ; v v v j @ k v v ..Z b #.2.>.%.2.5.5.4.4.5.5.5.w.w.w.w.w.w.w.w.",
"w.w.w.w.w.w.w.w.5.5.5.4.5.5.5.1.%.2...* + * m v v z $ j z j v ; ; v x h j $ k v v m $ + b *.2.>.&.4.5.6.4.5.5.5.w.w.w.w.w.w.w.w.",
"w.w.w.w.w.w.w.w.4.5.5.5.5.5.3.%.:.*.A Z : $ k v v z $ z j h v : ; v k @ : @ k v v j $ : N T >.2.&.2.5.5.5.5.5.5.w.w.w.w.w.w.w.w.",
"w.w.w.w.w.w.w.5.3.5.5.5.5.5.<.%.<.F D | z h k z v k @ j j j v ; ; v v $ : $ k v v j : v  .Z W 2.,.%.5.5.5.5.5.5.3.w.w.w.w.w.w.w.",
"w.w.w.w.w.w.w.5.3.5.6.5.5.3.:.,._ * : m z h k v v k @ k v v v ; ; v v h j $ k v v j j v m ; , +.2.:.2.5.5.5.5.3.3.w.w.w.w.w.w.w.",
"w.w.w.w.w.w.w.5.3.5.5.5.5.2.,.=.u + : v v j k j k k @ j v v v # O j k x j $ k x v j j v v h + F ,.2.2.5.5.5.5.5.3.w.w.w.w.w.w.w.",
"w.w.w.w.w.w.w.5.3.5.5.5.4.2.2.! p ; j v v z k j k k @ k v v v # + v v v j $ k k v k j v v : : A X.,.<.3.6.5.5.5.3.w.w.w.w.w.w.w.",
"w.w.w.w.w.w.w.5.3.5.5.5.2.1.-.Z ` B h v v x v v v k @ j v x k + # v v v j $ j j v v v v v h F ` L ,.:.<.5.5.5.5.3.w.w.w.w.w.w.w.",
"w.w.w.w.w.w.5.5.3.5.3.2.&.<.} @ c h j v v v v v v k @ k v x j O + v v v j $ k k v v v v x j : l : #.2.2.5.5.5.5.3.w.w.w.w.w.w.w.",
"w.w.w.w.w.w.5.5.3.5.5.4.<.=.H + j $ j v v v v v v k @ j v v v # # v v x j $ x v v v v v v j $ j + W ,.:.3.5.5.5.3.w.w.w.w.w.w.w.",
"w.w.w.w.w.w.5.5.4.5.5.3.;.#.A b v $ j v v v v x k h @ : k v v # # v v k $ $ j v v v v v v j : x b L ,.&.2.5.3.5.3.w.w.w.w.w.w.w.",
"w.w.w.w.w.w.5.5.3.5.5.3.2.| I / v : j v v v v v v j @ j k x v $ # v v v j @ h k v k k k v j h v } I #.2.3.3.3.4.4.w.w.w.w.w.w.w.",
"w.w.w.w.w.w.5.5.5.5.5.2.2.R : c k : j v v v v v v z @ j v v k O O v v v j $ k v k j $ h v k $ k c : } 2.2.3.3.5.3.w.w.w.w.w.w.w.",
"w.w.w.w.w.w.5.5.3.5.5.1.:.S @ j j : k v v v v k v x $ j v v v ; ; v v v j @ k v k k v j j j h j j @ T 2.2.5.3.5.4.w.w.w.w.w.w.w.",
"w.w.w.w.w.w.5.5.5.3.3.;.&.u $ j j : j k v v x j v z @ k v v v ; ; v v v j $ k v k j v k k j $ j j @ S 2.2.3.3.5.4.w.w.w.w.w.w.w.",
"w.w.w.w.w.w.5.5.3.5.3.%.#.n S j j : j j k v x k v j $ j v v v ; ; v v v j $ z v k j v j v k : : k B A >.2.4.5.3.4.w.w.w.w.w.w.w.",
"w.w.w.w.w.w.5.5.5.5.3.;.+.G | z j > j j x v v v v v $ j v v v ; $ v v v j @ k v v v v k v j j j c ..L =.2.5.5.3.4.w.w.w.w.w.w.w.",
"w.w.w.w.w.w.5.5.4.4.3.;.X., m z j $ x v v x v v v j # j v v x ; ; l v v j # j v v x k v v k h k v n < &.2.5.5.5.4.w.w.w.w.w.w.w.",
"w.w.w.w.w.w.5.5.5.4.3.;. .* j z j j l v v j k x v l @ l v v j O # j v v j # x v v x j x v l : z v j : $.2.5.5.5.5.w.w.w.w.w.w.w.",
"w.w.w.w.w.w.5.5.5.3.3.;.' 5 5 0 0 9 0 0 0 9 8 0 0 0 7 8 0 0 t O ; r 9 0 9 7 8 0 0 0 0 0 0 0 7 0 0 0 5 @.2.5.5.6.4.w.w.w.w.w.w.w.",
"w.w.w.w.w.w.5.5.5.3.3.;.' 4 4 4 3 4 q 4 4 4 3 4 q 4 4 3 4 4 9 O = 7 4 4 3 4 q 4 4 3 4 4 4 4 4 4 4 4 4 { 2.5.5.5.5.w.w.w.w.w.w.w.",
"w.w.w.w.w.w.5.5.5.3.4.:.' 4 q d ( w 4 4 4 g g q 4 4 w ( f 4 9 % & 9 4 g g w 4 4 w ( f 4 4 4 e ( d 4 4 @.2.5.5.5.5.w.w.w.w.w.w.w.",
"w.w.w.w.w.w.5.5.4.3.4.;.' 3 a 3.q.' 4 4 f 6.9.g 4 4 ( 7.8.s 7 O O 7 f 8.7.g 4 4 ( 0.6.s 4 4 { 0.3.e 4 @.2.5.5.5.3.w.w.w.w.w.w.w.",
"w.w.w.w.w.w.5.5.5.4.5.;.' 4 d 5.8.@.4 3 ( 6.8.) 3 4 ' 6.8.f 7 O O 4 ( 8.6.) 4 3 ' 8.6.g 3 q &.8.5.d 3 @.2.5.5.5.5.w.w.w.w.w.w.w.",
"w.w.w.w.w.w.5.5.5.5.4.;.' 2 e &.3.g 4 4 a 2.2.d 4 4 f 3.<.e 7 O & 7 a ,.2.f 4 4 d 3.<.e 4 3 ( 4.%.w 3 { ,.5.3.5.5.w.w.w.w.w.w.w.",
"w.w.w.w.w.w.5.5.5.5.4.=.' 1 2 e a q 4 4 4 i a 4 4 4 q a e 4 7 % O 9 4 e a 4 4 4 4 a i 4 q 4 4 a e 3 3 @.2.4.3.5.5.w.w.w.w.w.w.w.",
"w.w.w.w.w.w.5.5.5.5.4.:.' 1 1 1 1 1 3 3 3 3 1 1 3 3 2 1 1 1 6 + ; 6 3 1 2 3 3 3 2 1 1 2 2 2 1 1 1 1 1 @.2.5.3.5.5.w.w.w.w.w.w.w.",
"w.w.w.w.w.w.5.5.5.5.3.:...& = = = = = ; = = = = ; = o & = = > + # : = = = & = = = = = = = = & = = & = #.2.5.3.5.5.w.w.w.w.w.w.w.",
"w.w.w.w.w.w.5.5.5.5.3.;. .< V v v k c v v x v v v k $ k v v v O ; v v v j ; x v v v v v v v k v v M u #.2.3.3.5.5.w.w.w.w.w.w.w.",
"w.w.w.w.w.w.5.5.5.5.5.;...I } v v j v v v v v v v j @ j v v v # ; v v v j @ j x v v v v v v k v v | I #.2.5.3.5.5.w.w.w.w.w.w.w.",
"w.w.w.w.w.w.5.5.5.5.3.:...u C v x k v v v v v v v j # x v v v # ; v v v j @ j v v v v v v v x v v B n #.2.5.5.5.5.w.w.w.w.w.w.w.",
"w.w.w.w.w.w.5.6.5.5.5.1...: v v v k v v v v v v v k @ j v v v O + v v v j $ x v v v v v v v x v v v l #.2.5.5.5.5.w.w.w.w.w.w.w.",
"w.w.w.w.w.w.5.5.5.5.5.2. .L Q v v k v h j v v v v l $ j v v v O # v v v j $ x v v v v v v v x v v ~ L #.2.4.6.5.5.w.w.w.w.w.w.w.",
"w.w.w.w.w.w.5.5.5.5.5.2...H E x v x v j x v v v v v @ j v v v + # v v v j # v v v v v v v v v v v E H #.<.3.5.5.5.w.w.w.w.w.w.w.",
"w.w.w.w.w.w.5.5.5.5.3.1.| j v x k v v v v v v v z j $ j j v v O ; v v v j @ j z x x j v j x v v v v l $.<.3.5.5.5.w.w.w.w.w.w.w.",
"w.w.w.w.w.w.5.5.5.3.3.2.X.j v x j v v v v v v x j $ @ j j v v # ; v v v j @ : j v v j : > x v v v v l #.1.3.5.5.5.w.w.w.w.w.w.w.",
"w.w.w.w.w.w.6.5.5.5.3.2.X.< v k j k j j j j v v x k @ k j j v + ; v v v j $ x v v v v j : v v v v v b +.:.5.5.5.5.w.w.w.w.w.w.w.",
"w.w.w.w.w.w.5.5.5.5.5.2. .P / v v v v j j v v v v z $ k k j k O > v v v j $ v v v v v x v v v v v } P O.;.5.5.5.6.w.w.w.w.w.w.w.",
"w.w.w.w.w.w.5.5.5.5.5.2...A K v v v v v x v v v v k @ j v v v + ; v v v j @ k v v v v j v v v v v K A o.:.5.5.5.5.w.w.w.w.w.w.w.",
"w.w.w.w.w.w.5.5.5.5.5.,.X.$ v v c x v v v v v v v k @ j v v v O ; v v v j $ k v v v v j v v v v v v j o.1.5.5.5.5.w.w.w.w.w.w.w.",
"w.w.w.w.w.w.5.6.5.5.4.1. .A K v v l x v v v v v v k @ j v v v O ; v v x j $ z v j j v j l v v v v Y A o.,.4.5.5.5.w.w.w.w.w.w.w.",
"w.w.w.w.w.w.5.4.4.5.4.,.X.L ! v v j l v v v v v k j $ ; j v v # ; v v j $ # k v < l v v v v j v v } L +.2.5.5.5.5.w.w.w.w.w.w.w.",
"w.w.w.w.w.w.5.5.4.5.5.2.X.; c x v j l x x j v v l j # j v v v # ; v v v j ; k v j j v j v v j j v l , +.2.5.5.5.4.w.w.w.w.w.w.w.",
"w.w.w.w.w.w.5.5.5.5.3.2.[ 5 8 8 0 0 0 0 0 0 0 0 0 0 7 6 0 0 y O ; y 0 0 0 5 0 0 0 0 0 0 0 0 0 0 0 0 5 %.2.5.5.5.5.w.w.w.w.w.w.w.",
"w.w.w.w.w.w.5.6.5.5.5.<.' 4 4 3 3 4 4 4 4 4 3 4 4 q 4 4 4 4 9 O = 9 4 4 4 4 q 4 4 4 3 4 4 4 4 4 4 4 7 %.,.3.5.5.5.w.w.w.w.w.w.w.",
"w.w.w.w.w.w.5.5.5.5.5.,.' 4 4 f ( w 4 4 w f g w 4 7 w g f 4 9 O & 7 4 f g w 4 4 w g f 4 4 4 w ( d 4 w @.2.5.5.5.6.w.w.w.w.w.w.w.",
"w.w.w.w.w.w.5.5.6.5.5.,.' 3 e 3.q.' 4 4 d 6.9.g 4 4 ( 7.8.a 7 O = 7 d 8.7.g 4 4 ( q.5.d 4 4 { q.2.e 4 @.2.5.5.5.5.w.w.w.w.w.w.w.",
"w.w.w.w.w.w.5.6.5.3.3.<.' 4 d 5.8.@.4 3 ( 6.8.) 3 4 [ 6.8.g 4 o & 7 ( 8.6.) 4 3 ' 8.6.g 4 4 ;.8.5.d 4 @.2.5.5.3.5.w.w.w.w.w.w.w.",
"w.w.w.w.w.w.5.5.5.3.3.<.' 3 e <.3.g 4 4 s ,.3.d 4 4 f 3.:.e 9 O O 4 a ,.3.d 4 4 f 3.1.i 4 4 ( 4.&.w w @.2.5.4.3.5.w.w.w.w.w.w.w.",
"w.w.w.w.w.w.5.5.5.5.5.,.' 1 3 e s q 4 4 4 a a 4 4 4 q a i 4 9 O = 9 4 i a q q 4 4 a e 4 4 4 9 s e 3 3 %.2.5.5.5.5.w.w.w.w.w.w.w.",
"w.w.w.w.w.w.5.5.5.5.3.2.' 1 1 2 1 3 3 2 2 1 1 1 2 2 2 1 1 1 7 O O 5 1 1 1 2 2 3 3 1 2 3 2 2 2 2 2 1 3 @.3.4.5.5.5.w.w.w.w.w.w.w.",
"w.w.w.w.w.w.5.5.5.3.2.@.` & & & & & & & & & = & & & % & = = ; X + ; = = & % & & & & & & & & & & & & - +.2.5.5.5.5.w.w.w.w.w.w.w.",
"w.w.w.w.w.w.5.6.5.3.2.%.| m C v v v v v x x v v v k $ j x x j . O j v v j $ x v v v v z v v v v v C M *.2.5.5.5.5.w.w.w.w.w.w.w.",
"w.w.w.w.w.w.5.5.5.5.5.3.X.R ^ v v k v v v v v v v k $ k v v v # # v v v j @ k v z v v v v v v v v } R #.2.5.5.5.5.w.w.w.w.w.w.w.",
"w.w.w.w.w.w.5.5.5.5.5.2.X.n B l * @ j v v v v v v x $ j v v v # # v v v j # k v j j z v v v v v v B N #.2.5.4.5.6.w.w.w.w.w.w.w.",
"w.w.w.w.w.w.5.5.5.5.4.2...: x v l l z z v v v v v k $ j v v v O # v v v j @ k z : $ h v v v v v v v : +.2.4.3.5.5.w.w.w.w.w.w.w.",
"w.w.w.w.w.w.6.5.5.5.4.<.| G Q v v v v v j v v v v k @ k v v v # $ v v v k @ z v v z v v v z k v v ^ H +.1.3.3.5.5.w.w.w.w.w.w.w.",
"w.w.w.w.w.w.5.5.3.5.5.<. .D H j v v v x j v v v v x @ j v v v + ; v v v j @ z v v v v v v l k z l L G +.<.3.4.5.5.w.w.w.w.w.w.w.",
"w.w.w.w.w.w.5.5.3.3.4.<...+ + @ : h h : : : h : h : $ $ j $ > . X j : j $ @ : h h : h h h : : ; @ + : #.1.5.3.5.5.w.w.w.w.w.w.w."
};
