/* XPM */
static char *a332d74981e74c80f75d19a9af06e64eZWAiqi9wnCutgrCO[] = {
/* columns rows colors chars-per-pixel */
"64 64 253 2 ",
"   c #010101",
".  c #040905",
"X  c #080905",
"o  c #01020C",
"O  c #09050D",
"+  c #0A0B0A",
"@  c #070C08",
"#  c #000114",
"$  c #0D0B13",
"%  c #060716",
"&  c #140D19",
"*  c #131313",
"=  c #1A1B16",
"-  c #1B1B1A",
";  c #18151A",
":  c #0F1214",
">  c #211D1E",
",  c #21221D",
"<  c #1B1825",
"1  c #0A1127",
"2  c #221A27",
"3  c #1D2638",
"4  c #262424",
"5  c #292C29",
"6  c #28362A",
"7  c #292736",
"8  c #2D3931",
"9  c #363A37",
"0  c #323032",
"q  c #1F201B",
"w  c #2E4637",
"e  c #3B433C",
"r  c #324C3D",
"t  c #374539",
"y  c #314B37",
"u  c #40453F",
"i  c #1E2D44",
"p  c #2C3647",
"a  c #393B45",
"s  c #29364C",
"d  c #423F48",
"f  c #364E41",
"g  c #3C4B43",
"h  c #3D4C47",
"j  c #3A5244",
"k  c #3C5549",
"l  c #3D594E",
"z  c #375144",
"x  c #3B5B51",
"c  c #394869",
"v  c #444B43",
"b  c #464B47",
"n  c #44534B",
"m  c #4C544B",
"M  c #435A4C",
"N  c #4C5D4C",
"B  c #475345",
"V  c #525B4E",
"C  c #51574B",
"Z  c #445D52",
"A  c #4B5B53",
"S  c #495653",
"D  c #525C55",
"F  c #535E59",
"G  c #565956",
"H  c #42445D",
"J  c #4C6254",
"K  c #49655B",
"L  c #536355",
"P  c #54635B",
"I  c #5B645D",
"U  c #5B6B5C",
"Y  c #556959",
"T  c #516952",
"R  c #626D5C",
"E  c #656B5A",
"W  c #65715D",
"Q  c #6A725C",
"!  c #585B67",
"~  c #404F70",
"^  c #435273",
"/  c #4A5976",
"(  c #4D5B73",
")  c #546C63",
"_  c #5C6B64",
"`  c #5C6A66",
"'  c #577369",
"]  c #596477",
"[  c #55726E",
"{  c #646D63",
"}  c #696E65",
"|  c #676E6A",
" . c #657264",
".. c #6B7464",
"X. c #6D7966",
"o. c #64726B",
"O. c #6C746B",
"+. c #6C7B6A",
"@. c #66796D",
"#. c #737C6C",
"$. c #707869",
"%. c #696B76",
"&. c #6B7B72",
"*. c #6C7C7C",
"=. c #667775",
"-. c #747C74",
";. c #757877",
":. c #716E77",
">. c #74816E",
",. c #6D8179",
"<. c #738273",
"1. c #7B8274",
"2. c #78847D",
"3. c #6F816B",
"4. c #82817F",
"5. c #4B628E",
"6. c #45649C",
"7. c #4A669D",
"8. c #4A699F",
"9. c #486394",
"0. c #536A96",
"q. c #5C739E",
"w. c #586F8F",
"e. c #626D84",
"r. c #6E7B8B",
"t. c #697685",
"y. c #727E83",
"u. c #777C89",
"i. c #697694",
"p. c #747E95",
"a. c #4669A2",
"s. c #4C6CA3",
"d. c #496AA4",
"f. c #516EA5",
"g. c #556FA8",
"h. c #4D72AB",
"j. c #4F70A6",
"k. c #5271A7",
"l. c #5473AB",
"z. c #5976AE",
"x. c #5B78A8",
"c. c #5577B1",
"v. c #5977B2",
"b. c #547AB3",
"n. c #5C7AB4",
"m. c #5D7DB9",
"M. c #657BA8",
"N. c #627CB4",
"B. c #637DBB",
"V. c #697FB4",
"C. c #707FAA",
"Z. c #6E8186",
"A. c #738283",
"S. c #74848B",
"D. c #7B8587",
"F. c #7A8693",
"G. c #748995",
"H. c #7B8B9B",
"J. c #778794",
"K. c #7D919C",
"L. c #78908B",
"P. c #5D81B7",
"I. c #5F87AB",
"U. c #7687A9",
"Y. c #6382B3",
"T. c #6B82B5",
"R. c #6582BB",
"E. c #6B85BC",
"W. c #6C89BD",
"Q. c #658DB6",
"!. c #758BB6",
"~. c #748ABD",
"^. c #7A8DBC",
"/. c #7488B7",
"(. c #7C91BC",
"). c #7492BB",
"_. c #7E94A1",
"`. c #6583C1",
"'. c #6C8BC2",
"]. c #6C89C6",
"[. c #738DC4",
"{. c #748ECC",
"}. c #7A8EC1",
"|. c #6E91C5",
" X c #7291C6",
".X c #7C94C2",
"XX c #7593CA",
"oX c #7A93CD",
"OX c #7C9ACC",
"+X c #7E9AC5",
"@X c #7C95D2",
"#X c #7C99D5",
"$X c #848A87",
"%X c #87948A",
"&X c #858C96",
"*X c #83939C",
"=X c #8B9698",
"-X c #949898",
";X c #948C97",
":X c #9CA39D",
">X c #8494A4",
",X c #8B9BA4",
"<X c #869AA8",
"1X c #949CAA",
"2X c #8596BB",
"3X c #949CB2",
"4X c #848DB5",
"5X c #97A6A7",
"6X c #8EA5B5",
"7X c #93A2B2",
"8X c #97A8B7",
"9X c #93A9B6",
"0X c #A4A9A6",
"qX c #B1B6B3",
"wX c #8295C2",
"eX c #859BC6",
"rX c #849DCB",
"tX c #899EC9",
"yX c #8A9AC5",
"uX c #8297D0",
"iX c #839DD7",
"pX c #909EC5",
"aX c #8CA3CC",
"sX c #89A5C7",
"dX c #92A6CC",
"fX c #95ABCD",
"gX c #98A7C7",
"hX c #8CA5D3",
"jX c #8AA7D7",
"kX c #95ACD3",
"lX c #9AADD3",
"zX c #93A9D7",
"xX c #9BB2D4",
"cX c #9BB2DB",
"vX c #9BB2C2",
"bX c #A5B6C9",
"nX c #A5B5D2",
"mX c #AABAD5",
"MX c #ABBEDA",
"NX c #A7BBD6",
"BX c #B0BEDB",
"VX c #90ACE2",
"CX c #AABEE2",
"ZX c #839FE0",
"AX c #ABC2D9",
"SX c #B7C6DD",
"DX c #ADC1CD",
"FX c #B6C9E6",
"GX c #B0C7F0",
"HX c #C7D7F1",
"JX c #D3E2F6",
"KX c #E6F5FF",
"LX c #C7CDC8",
/* pixels */
"                                                                                                                                ",
"                                                                                                                                ",
"                                                                                                                                ",
"                                                                                                                                ",
"                                                                                                                                ",
"                                                                                                                                ",
"                                                                                                                                ",
"                                                                                                                                ",
"                                                                                                              .                 ",
"                                                                                                .       X X .   .               ",
"o o o o o o o o o o o o o o o o o o o o o o o o o o o o o o o o o o o o   o o                   . . . .       .         o o o o ",
"# # # # # # # # # # # # # # # # # # # # # # # # # # # # # # # # # # # # # # # o o o o o o o o .     . .       o o o o o # # # # ",
"c c c c c c c c c c c c c c c c ~ ~ ~ ^ ^ ^ ^ ^ ^ ^ ^ ^ ^ ^ / / / / / / ( ] ] ] ] ] e.t.t.r.r.S.*X*X,X8XbXDXbX7X*XH.H.p.r.t.e.e.",
"5.5.5.5.5.5.5.5.0.0.0.0.0.0.0.0.q.q.q.q.x.x.x.x.M.M.M.M.M.M.M.M.C.C.U.U.U.U.!.!.2X2XgXgXnXMXSXSXDXSXJXKXKXKXJXHXFXSXBXmXnXlXgXgX",
"9.9.9.6.6.6.6.6.7.7.7.7.8.8.s.s.f.f.k.k.k.k.l.l.l.l.z.z.z.n.n.n.M.M.M.V.T.T./.!.!.!.(.eXaXkXxXxXnXFXHXHXFXMXmXnXfXgXdXpXpXyX2X2X",
"6.6.6.6.a.a.a.a.a.d.d.d.d.d.j.j.h.h.h.h.l.l.l.l.l.c.c.b.n.n.m.m.N.N.V.V.T.T.E.W. X.X.XtXaXzXkXkXFXFXFXMXnXxXlXlXlXlXdXaXyXwX2X^.",
"6.6.6.6.7.a.a.a.a.a.s.d.d.s.s.h.l.h.l.l.c.c.v.v.n.n.n.n.m.m.Y.N.R.E.R.R.E.E.~.^.^..XwXeXeXaXkXcXGXCXcXkXkXkXkXdXaXaXaXtXeX(.^.!.",
"6.6.6.7.a.8.s.s.s.d.s.s.s.j.l.l.l.l.l.l.c.c.v.v.n.n.m.m.N.N.Y.Y.E.E.E.E.E.E.~.~.^.^..XeXaXkXcXcXcXkXdXhXzXzXhXaXtXtXeXeXeX(.(.!.",
"7.7.7.8.a.s.s.s.s.s.s.f.k.k.l.l.l.l.l.z.z.v.n.n.n.n.m.N.N.Y.Y.Y.E.E.E.E.E.E.W.W..X.X.XtXdXcXkXkXeXeXtXtXtXtXeXeXwXwXwXwXwX(.(.^.",
"7.7.7.8.s.s.s.s.s.s.f.k.k.l.l.l.l.l.z.z.v.n.n.n.N.N.N.N.N.Y.T.T.E.E.E.E.W.~.}.^.eXeXeXtXaXaXtXeX(.wXyXyXwX2XwX2XwX(.^.(.(.(.^.!.",
"8.8.s.s.f.f.f.f.f.f.g.k.l.l.l.l.z.z.z.z.n.n.N.N.N.N.N.V.V.T.T.T.W.W.E.W.'. XoXOXOXrXrXtX.X(.(.^.(.wXwXwX^.^.^.^..X^.^.^.^.^././.",
"s.s.s.s.f.f.l.l.g.g.l.l.l.z.z.z.z.n.n.n.N.N.B.B.B.B.V.V.T.T.T.E.'.'.'.'.[.oXOXiXOXrXrX.X}.~.~.^.~.~.}.^.~.~.^.}.}.^.~.~.~.W./.T.",
"h.h.l.l.l.z.z.z.l.z.z.v.n.n.n.n.n.n.n.m.B.B.B.B.`.R.E.E.E.E.E.E.].{. XoX@X#XuXuXuXOXXX[.[.[.}.[.~.~.~.[.~.[.}.}.}.~.~.W.W.W.E.T.",
"h.h.l.c.c.c.v.n.v.v.n.n.n.m.m.m.n.m.m.B.B.R.`.`.`.`.].'.'.'.[.'.].{.oX#X#X#X#X@XiXOX{.[.[.{.[.[.[.[.[.[.[.[.[.[.[.[.E.E.E.W.E.E.",
"h.b.P.P.b.b.n.B.m.N.m.m.m.m.m.n.P.m.`.`.v.`.{.m.m.#X`.R.].R.XX'.].{.ZXjX{.{.iXiX{.{.oXoXoXoXoXoX{. X X[.[.[.[.[.'.'.'.'.'.'.'.'.",
"b.b.b.b.P.P.n.z.E.B.N.n.R.R.'.'.'.P.P.`.'.].{.].#Xf.@XVX XXX[.XXVX@X{.oX#XiXiX{.@X@X@X@XoXoXoXoX X X X X X X|.|.W.'.|. X|.'.W.R.",
"|.Q.P.P.Y.W.~.~.V.V.T.E.E.E.Y.n. XW.W. XXXW.R.[.XXW.OX~..XhX.XaXW.oXiXjXiXoXoXiXuXuXuXuXuXuXuXuXOXOXOXOXOXOXOXOX XXXXXOXXXXX X'.",
"I.Q.).).).!.!.!.2X2XwXyXtXaXtXeX!.+X.X.XrX.X^.hX.XcXM.0.M.q.!.eXhXcXjX+XhXjXrXhXhXhXhXhXzXzXzXzXjXjXjXjXjXhXhXhXhXaXrX+X+XrXrXsX",
"sXsXsXsXgXgXgXgX3X4Xp.i.i.i.p.U.6XgX2XU.2XfXfXlXfXCXi.3 # i i./ w.sXxXfXxXNXkXaXkXdXdXdXkXlXlXkXxXxXxXlXkXfXfXfXxXfXdXsXaXaXdXaX",
"( ( ] e.r.%.H 7 1 % # # 1 1 3 i s i 1 1 s t.U.J.3XmX8Xs 1 p p s ^ 6XFXAXNXNXAXNXFXFXAXMXMXMXMXmXMXMXMXmXmXmXmXmXnXnXnXmXmXnXbXgX",
"=.S 3 % # % & & 7 7 2 < & % o o % % % 1 a u.3X8XF.] p % : o : 5XDXDXbX8X9XbXDXvX9X7X<X<X<X<X>X_.J.J.p.p.r.r.r.r.t.e.t.t.t.t.] ] ",
"A.*.` h 7 ; ; < < ; & & ; ; - - o o $ : o ; 0 a < 7 $ $ $ 2 ;.qX,XK.,X7X>XK.*XG.>XH.G.G.G.G.S.Z.r.r.t.t.t.t.t.t.] ] ( ] ] ] ( ( ",
"=.[ =.,.*.) h 9 5 - : + + + * - ; * O O $ $ O o O O O   & ! ;X;X1X1Xy.D.,X,X7X,X,X7X7X<X6X7X_.9X7X3X3X3X7X7X7X3X8X8X7X7X7X7X7X7X",
"K K K K ' ' ) P P A n v 9 5 , , 4 - $ + O O O   O   O o   & 2 O < < o o a t.1X*X*X,X,X*X<X<XH.<X<X<X>X>X>X>X>X>X>X>X>XK.K.K.K.H.",
"[ [ K x l Z Z M n S D I I F C m v e 6 , * + .   +   * 4 4 > ; * & $ $ a y.&X-X=X=X*X,XK.*X*XG.*X*X*XH.J.J.H.H.H.H.H.H.H.G.G.G.G.",
"x K K l l K K Z P P U _ _ _ I U R U U D m v e 9 4 - q 4 > * * - < $ & d :.;.u.-X&X&X*X&X&X*XF.*XF.F.F.F.F.F.S.S.S.S.S.S.Z.r.t.t.",
"K ' =.=.,.L.L.L.&.&.@. .U U U Y Y Y U R  . .{ R R R C e 5 - = , > 7 9 b ! %.:.4.y.;.$XF.D.&XD.F.S.S.S.F.F.F.S.S.S.S.S.S.S.S.Z.Z.",
") ' ) K K ) K K J P Y P J J P L T J N M N N N N B Y V t 6 , , , 0 4 *     * 7 G %.| D.$XA.D.y.*.y.y.A.S.S.S.S.A.S.S.S.S.S.S.Z.Z.",
"K Z l l Z Z l k f k M j f r f r T N M r r r t t t B v t t 8 5 6 9 4 0 9 v 9 a | ;.O.&X=X$X&XD.*.A.A.y.y.y.A.y.y.=.=.=.=.=.=.=.=.",
"x k k Z K K Z l r j k f r r f r w 6 6 w y r r w 8 8 6 6 t 8 6 e u v C v G ;.;.%X$XD.5X0X-X-X$X2.D.A.*.*.*.*.*.2.*.*.,.A.A.A.,.*.",
"j l l z z k k z r r r r r r r w r r r r r r w w 8 w t e 9 8 8 8 9 t e v m Y { o.{ o.-.2.D.D.=X5X=X=X5X$X=.L.2.` o.' ' ' o.=.=.=.",
"j k j f f j k z z z r r r r r r r r r f j j j g n g t g n S h t t g A _ _ Y U  .o.o.&.&.=._ ` ` ` ` -.o.` 2.A.o.` ` ` ` ` ` ` ` ",
"M j f j j j j j z z z r r j j M n k k n M M Z S A k g h A ) A h J j j _ 2.,._ L _ _ _ o.o._ _ _ F P P _ _ o.&.I P I I I I ) ) ) ",
"J M j k k j f j r f j k M M J L U Y P L L L P L A N S S F P P P k M U <.L.%X%X=Xo.I A A P P I _ F _ A _ I D _ D P P P P P I P P ",
"J M k M M k j M r j M J Y U U U X. .W R R R { { U U _ _ U _  . .@.U P o.%X5X=X&.$X&._ P D D F { m P n A F n I P I P P P A A A A ",
"M k k M M M M A M A Y _  .@. . ...Q W Q ..X.+.+.<.+.+.+.3.<.3.+. .<.2.2.2.%X%X2...I ` { | { O.D.| O.P D D S S A A A S S S S A A ",
"k Z J Z M Z J J J L Y  .+.-.+...Q Q Q Q Q Q X.X.>.X.X.X.3.>.+.@. .o.X.<.%X0X:X-X| O.$X-X-X-X0XqX0X:X$Xo.o.o.D D S S n n n Z S A ",
"M P U P N J J N A N L U +.<.#.X...Q Q Q Q Q E E R W Q W W R W  .X. .|  .| | O.-.E } ;.$X4.:.;.%XLXqX:X-.$X=X&.&._ I A m n h n n ",
"Y L J N N N N N L L Y W ..+.#.>.#.$.....X.X.Q E E W ..X.#.$.X... .{ | | { { { { O.} { } } { ..O.-.$X$X-.O.2.%X%X_ I D m n v v g ",
"Y Y V N N V L L Y Y U R  .+.#.<.#.$.X.X.#.#.#.$.$.#.>.>.#.$...} ..........{ | { O.X.O.O.O.1.%X:X-X-.O.2.$X;.{ { { I D m m m v v ",
" .R Y L L U R { .. . ...X.#.<.1.-.#.$.#.1.1.1.1.1.1.1.-.#.$...} ....| ..} } } } O.#.-.1.4.$X:XqXLX0X-XqXqX:X$X-.-.O.{ I ` I G m ",
"m v e e e v B B m m B B m m V V V V m m C V V V m C m m B B B v b b b v v v v v b B D F I I { O.$X2.;.O.;.;.{ F m v e 9 9 9 0 5 ",
".                     . . . .   . .                         . .                       . . .       . .     . .   . . . . . . . . ",
". .   . . . .       . . . .     .           . . . . . . . . . . . . . . . .   . .       . .       . . . . @ .                 . ",
"                                                                                .             .         .       . . . .         ",
"                              .     . .                                               .         . . .     . .                   ",
"                                                                                                                                ",
"                                                                                                                                ",
"                                                                                                                                ",
"                                          . . .                                                                                 ",
"                                                                                                                                ",
"                                                                                                                                ",
"                                        . + + X X X X X X X X X X X X X X X X X + X . .                                         ",
"                                        + * = = - - - - - - - - = = = = = = = = = = * + .                                       "
};
