/* XPM */
static char *b2e441b179a14d7bbcd67a0171a00e93nvdDcE3Os28ac5NR[] = {
/* columns rows colors chars-per-pixel */
"64 64 239 2 ",
"   c #020202",
".  c #0B0002",
"X  c #010C01",
"o  c #0B0B0B",
"O  c #04090B",
"+  c #130004",
"@  c #12030A",
"#  c #180000",
"$  c #180B11",
"%  c #131313",
"&  c #191919",
"*  c #19171A",
"=  c #09120F",
"-  c #320407",
";  c #2B2B2B",
":  c gray19",
">  c #112519",
",  c #550111",
"<  c #641319",
"1  c #015B2E",
"2  c #005428",
"3  c #09542C",
"4  c #006E2D",
"5  c #006823",
"6  c #00722D",
"7  c #026534",
"8  c #016B35",
"9  c #036C3A",
"0  c #0D6C3B",
"q  c #0B6535",
"w  c #19683C",
"e  c #007334",
"r  c #007D37",
"t  c #02733A",
"y  c #0A743C",
"u  c #00793C",
"i  c #0A7A3D",
"p  c #15743A",
"a  c #296735",
"s  c #295429",
"d  c #50532D",
"f  c #654A35",
"g  c #1E6D46",
"h  c #047E40",
"j  c #0A7944",
"k  c #117841",
"l  c #177D4E",
"z  c #177745",
"x  c #1A7A52",
"c  c #256C47",
"v  c #357E5A",
"b  c #2C7A50",
"n  c #575757",
"m  c gray25",
"M  c #754143",
"N  c #686868",
"B  c #757575",
"V  c #870915",
"C  c #B2000B",
"Z  c #AD0018",
"A  c #B80317",
"S  c #BC131C",
"D  c #B9181C",
"F  c #901829",
"G  c #B40927",
"H  c #BC1524",
"J  c #B61B25",
"K  c #BA1B24",
"L  c #BC1B2C",
"P  c #B61826",
"I  c #B11830",
"U  c #932F31",
"Y  c #AB252A",
"T  c #B52128",
"R  c #B92735",
"E  c #CB0113",
"W  c #CC031A",
"Q  c #C40C1B",
"!  c #CC0B1D",
"~  c #C50618",
"^  c #DB021C",
"/  c #D30519",
"(  c #CB111D",
")  c #C5151E",
"_  c #D7131F",
"`  c #C10009",
"'  c #E00013",
"]  c #C70D21",
"[  c #CB0D23",
"{  c #CA0726",
"}  c #DB0624",
"|  c #D30B24",
" . c #DC0B24",
".. c #D30E29",
"X. c #DC0B2A",
"o. c #D60424",
"O. c #C41323",
"+. c #CE1125",
"@. c #C41B25",
"#. c #CC1B24",
"$. c #C4162A",
"%. c #CC142A",
"&. c #CB1A2C",
"*. c #C41C29",
"=. c #D31524",
"-. c #DC1324",
";. c #D4142B",
":. c #DD152C",
">. c #D31A2A",
",. c #D91927",
"<. c #C81936",
"1. c #D81333",
"2. c #DD0B32",
"3. c #E30522",
"4. c #E10B25",
"5. c #E30B2B",
"6. c #E80528",
"7. c #FC0728",
"8. c #E11429",
"9. c #E21834",
"0. c #EF0E34",
"q. c #C42229",
"w. c #C9242B",
"e. c #D0202B",
"r. c #E4243B",
"t. c #BE394C",
"y. c #C2394A",
"u. c #D53C58",
"i. c #F32C43",
"p. c #B64B4F",
"a. c #936A64",
"s. c #D3435A",
"d. c #C65458",
"f. c #C24F5C",
"g. c #D65665",
"h. c #E0596A",
"j. c #DB6174",
"k. c #CC7678",
"l. c #CF6474",
"z. c #E56E76",
"x. c #01823D",
"c. c #008737",
"v. c #018242",
"b. c #0B8243",
"n. c #018945",
"m. c #048A49",
"M. c #0A8949",
"N. c #098349",
"B. c #14884A",
"V. c #168952",
"C. c #06914B",
"Z. c #298358",
"A. c #37895F",
"S. c #358C62",
"D. c #599477",
"F. c #568D6D",
"G. c #64997C",
"H. c #60A07E",
"J. c #48AA79",
"K. c #CA7781",
"L. c #EA7C8D",
"P. c #659D80",
"I. c #759183",
"U. c #68A584",
"Y. c #74A88B",
"T. c #7BB899",
"R. c #6EB492",
"E. c #868686",
"W. c #9C8C93",
"Q. c #909090",
"!. c #989898",
"~. c #B7858D",
"^. c #87B79C",
"/. c #8AA999",
"(. c #AB9BA3",
"). c #87B8A2",
"_. c #A8A8A8",
"`. c #B6B7B7",
"'. c #B5BEAB",
"]. c #CE8586",
"[. c #D69499",
"{. c #EA8B93",
"}. c #E897A7",
"|. c #F79CA9",
" X c #DDB3AF",
".X c #F8BABD",
"XX c #E9B0AE",
"oX c #97C6AC",
"OX c #A0D8B9",
"+X c #A8CAB4",
"@X c #E9C7BD",
"#X c #F1B7C1",
"$X c #B4DBC5",
"%X c #ACDEC5",
"&X c #BAE5CC",
"*X c #BEE8D0",
"=X c #C8C8C8",
"-X c #DDDDDC",
";X c #D1DED7",
":X c #E9DAD4",
">X c #FFD4D5",
",X c #F6CACB",
"<X c #C8F0D9",
"1X c #FFE1DF",
"2X c #DCEEE3",
"3X c #D8F5E7",
"4X c #DAFFF9",
"5X c #E3E4E3",
"6X c #ECECEC",
"7X c #EBE7E5",
"8X c #FEECEB",
"9X c #F9EAE6",
"0X c #ECF3EB",
"qX c #E7FBEC",
"wX c #F8F4ED",
"eX c #EBEDF1",
"rX c #FEEEF3",
"tX c #FFECFB",
"yX c #F7EBF1",
"uX c #E5FFF3",
"iX c #ECFDF4",
"pX c #E4FFFB",
"aX c #EDFEFB",
"sX c #EDF5F1",
"dX c #F4F4F4",
"fX c #FDF3F5",
"gX c #F3FDF5",
"hX c #FDFCF5",
"jX c #F4F4FB",
"kX c #FEF5FD",
"lX c #F4FEFD",
"zX c #F9F9F9",
"xX c #FAFAFA",
"cX c #FFF9FF",
"vX c #FDFDFD",
"bX c white",
"nX c #FEFEFE",
"mX c #FEFEFE",
"MX c #FEFEFE",
/* pixels */
"bXbXbXbXbXbXbXbXzXbXbXbXdXzXbXbXdXbXbXbXzXzXbXbXbXvXdXdX6X-X=X`.`.=X-X6XdXdXbXbXbXvXvXbXzXdXzXbXbXbXzXdXbXbXbXdXbXbXbXbXbXbXbXbX",
"bXbXbXbXbXbXbXbXbXdXdXbXbXbXbXzXbXbXzXzXbXbXzX5X_.E.n ; o             o : n Q.`.5XzXbXbXzXzXbXbXdXbXbXbXbXdXdXbXbXbXbXbXbXbXbXbX",
"bXbXbXbXbXbXbXbXbXbXbXdX6XzXbXbXdXdXbXbX5X_.n %           O O O     O           * n _.-XbXbXbX5XbXbXzXdXdXbXbXbXbXbXbXbXbXbXbXbX",
"bXbXbXbXbXbXbXbXdXbXbXbXbXbXbXdXzXbX5XN % o o   o o O O O O         O O O O O o       ; E.-XbXbXdXbXbXbXbXbXbXdXbXbXbXbXbXbXbXbX",
"bXbXbXbXbXbXbXbXbXdXdXbXbXbXbXbXdXN     o     %               O o O           O   o o     * E.dXbXzXdXbXbXbXzXbXbXbXbXbXbXbXbXbX",
"bXbXbXbXbXbXbXbXbXbXbXdXbXbX5X_.O O O   O O         O o o o .       o o o o           o o   O * `.5XbXbXdXbXbXbXbXbXbXbXbXbXbXbX",
"bXbXbXbXbXbXbXbXbXbXzXzXbX5XB   O O O         o .             O                 %             O   B dXbXzXdXzXzXbXbXbXbXbXbXbXbX",
"bXbXbXbXbXbXbXbXbXdXbXbX`.:   o         O o O       O O                 O           O O             m =XbXbXdXbXbXbXbXbXbXbXbXbX",
"cXxXlXgXMXwXzXlXlXvXbX`.O   o @                                                                   &   % `.MXbXdXbX6XbXbXzXbXzXbX",
"bXsXvXbXwXbXbXdXcXcX(.. %                                                                       o   % o O =XdXbX6XbXbXdXbXzXbXbX",
"lXgXbXbX7XcXkXcXcX(.$ . . *   X                                                                   %     O   =XbXzXbXbXdXbXzXbXbX",
"iXbXcXbXxXvXlXbX`.%   $ . . %                                                                   O   o   O   O -XbXdXbXbXzXbXzXbX",
"gXMXkXbXlXpXlX=X> X X X @ .                                                                     O O   o o   % : -XbXdXbXdXbXzXbX",
"MXfXcXbXaXgXhXM . = X X   $ . O                                                                 O   o   o   *   n bXdXbXbXdXbXbX",
"MXfXcXbXgXwX{.V < # X X o . $                                                                     o   o   o   *   _.dXbXbXdXbXbX",
"lXbXcXjXbX>XI 5.I , . X   @ .                                                                     O     %         % zXbXdXbXbXbX",
"aXlXkXfXhXf.o.@.6.$.< +   o o   X X X   . .   O   X       X                                                     O o N bXbXdXbXdX",
"vXxXcXhX,XI 9.S [ %.<.F -     % @ o X   . +   X                                                                   o O -XdXbXdXbX",
"bXfXvXhXl.A r.Q q.! } 1.F - . X . . @ .   O             O O O O   . O O     O O O O . .   . O O     . O .   O O   o   B bXbXdXbX",
"bXkXgX:XG } >.+.=.( ~ o.1.L < . X . + @ O X X -         O O O O . O O O   O O O O O   . O O O O       . . .   O . O % o 6XbXbXbX",
"cXkXhX~.W 0.Q =.E >.e.[ X.9.L V . .       X   .                                                                     O   B bXzXbX",
"bXvXhXU 5.5.Q ( S =.-.| O.@.;.6.V a././.W.~.W.I.Q.Q.Q.Q.Q.Q.Q.Q.Q.Q.Q.Q.Q.Q.Q.Q.Q.Q.Q.Q.Q.Q.Q.Q.Q.Q.Q.Q.Q.Q.Q.Q.!.E.Q.Q._.bXdXbX",
"bXiX#XG 9.! +.( #.! / | O.O.| 3.[ h..XfXcXcXbXaXbXbXbXMXvXvXvXvXbXbXzXbXbXbXbXbXbXxXxXvXbXbXbXbXbXbXbXbXbXbXbXbXbXdXbXzXbXdXdXdX",
"bXaXK.2.[ S =.>.^ ;.&.+. . .+.J _ ` <.}.gX4XpXkXzXzXzXzXzXzXzXzXzXzXzXzXzXzXzXzXzXzXzXzXzXzXzXzXzXzXzXzXzXzXzXzXdXbXbXzXbX-XbXbX",
"cXhXy.W :.$.Y 3.+.+.+.+.+.+.+.+.*.8.^ ! z.9XlX4XkXbXaXgXbXkXyXlXbXbXbXbXbXbXbXbXbXbXbXbXbXbXbXbXbXbXbXbXbXbXbXbXbXbXbXbXbXdXdXbX",
"cX9XR W :.O.T 3.+.+.+.+.+.+.+.+.[ +.#.O.$.g.#XbXaXdXcXcXeXlXbXyXbXbXbXbXbXbXbXbXbXbXbXbXbXbXbXbXbXbXbXbXbXbXbXbXbXbXbXbXbXdXdXbX",
"cX,XP W :.[ P 3.+.+.+.+.+.+.+.+...O.@.>.~ A s.|.aXzXrXcXbXaXjXkXbXbXbXbXbXbXbXbXbXbXbXbXbXbXbXbXbXbXbXbXbXbXbXbXbXbXbXbXbXdXdXbX",
"cX XA ! :.| H 4.+.+.+.+.+.+.+.+.L [  .-.#.*.[ o.[.8XMX0XvXcXcXvXbXbXbXbXbXbXbXbXbXbXbXbXbXbXbXbXbXbXbXbXbXbXbXbXbXbXbXbXbXzXdXbX",
"cX[.A ! >.X.$.X.+.+.+.+.+.+.+.+.O.;. .! ) q.=.^ G j.1XzXiXbXbXeXbXbXbXbXbXbXbXbXbXbXbXbXbXbXbXbXbXbXbXbXbXbXbXbXbXbXbXbXbXzXdXbX",
"MX].` =.#.5.&.=.+.+.+.+.+.+.+.+.4.+.@.@.! W +.w.{ A s.,XhXaXgXkXbXbXbXbXbXbXbXbXbXbXbXbXbXbXbXbXbXbXbXbXbXbXbXbXbXbXbXbXbXzXdXbX",
"MXk.E #.S 5.&.O.+.+.+.+.+.+.+.+.8.O.H &.:.o.! H ! 9.~ R |.fXMXbXbXbXbXbXbXbXbXbXbXbXbXbXbXbXbXbXbXbXbXbXbXbXbXbXbXbXbXbXbXbXdXzX",
"hXk.E #.S 5.&.H +.+.+.+.+.+.+.+.D O.} o.[ &.;. .( #.%.{ <.L.8XpXbXbXbXbXbXbXbXbXbXbXbXbXbXbXbXbXbXbXbXbXbXbXbXbXbXbXbXbXbXbXdXzX",
"gXk.' -.S X.;.| +.+.+.+.+.+.+.+.4.| [ ;.%.] [ >.=.Q +.{ <.{.hX4XbXbXbXbXbXbXbXbXbXbXbXbXbXbXbXbXbXbXbXbXbXbXbXbXbXbXzXbXbXzXdXzX",
"xXk./ -.S X.&.| +.+.+.+.+.+.+.+. .+.@.@.;. .[ Q A i.[ R .XhX6XbXbXbXbXbXbXbXbXbXbXbXbXbXbXbXbXbXbXbXbXbXbXbXbXbXbXbXzXbXbXzXdXzX",
"xX].E _ #.X.&. .+.+.+.+.+.+.+.+.S $.+.! Q #.=.-.1.Z h.9XhXaXbXkXbXbXbXbXbXbXbXbXbXbXbXbXbXbXbXbXbXbXbXbXbXbXbXbXbXbXbXbXbXzXdXzX",
"bX[.A _ >.X.$. .+.+.+.+.+.+.+.+.Y ] ^ 3.#.T O.^ <.L.8XzXgXbXbXjXbXbXbXbXbXbXbXbXbXbXbXbXbXbXbXbXbXbXbXbXbXbXbXbXbXbXbXbXbXdXdXbX",
"bX XP ! ,.| K  .+.+.+.+.+.+.+.+.&.[ / 8.:.O.H R }.fXxX2XbXcXkXbXbXbXbXbXbXbXbXbXbXbXbXbXbXbXbXbXbXbXbXbXbXbXbXbXbXbXbXvXbXdXdXbX",
"kX:XR Q :.| P  .+.+.+.+.+.+.+.+.3.+.q.@.E { g.XXaX5XrXcXbXaXbXkXbXbXbXbXbXbXbXbXbXbXbXbXbXbXbXbXbXbXbXbXbXbXbXbXbXbXbXbXbXdXdXbX",
"kXhXp.Q 5.| J } +.+.+.+.+.+.+.+./ =.q.S L j.,XvX4XbXcXkXvXlXbXrXbXbXbXbXbXbXbXbXbXbXbXbXbXbXbXbXbXbXbXbXbXbXbXbXbXbXbXzXbXdXdXbX",
"kXhXd.Q 5...T ^ +.+.+.+.+.+.+.+.R | / =.{.hXlXjXkXcXlXlXbXfXzXlXbXbXbXbXbXbXbXbXbXbXbXbXbXbXbXbXbXbXbXbXbXbXbXbXbXbXbXzXbXdXdXbX",
"jXaX|.| ( D =.%.| | X.;.Y J | | 7.W y.#XvXaXaXcXbXbXbXMXbXbXbXbXbXbXbXMXbXbXbXbXbXbXbXbXbXbXbXbXbXbXbXbXbXbXbXMXlXkXtXkXvX5XMXhX",
"bXiX>XL | ( >.] +. .J T 5.X.$.3.C d.@XzXzXyX6XuX0X0X0X0X0X0X0X0X0X0X0X0X0X0X0X0X0X0X0X0X0X0X0X0X0X0X0X0X0X0X0X0X4XaX3X2X;XvXgXgX",
"bXdXhXp.W  .&.[ +.J @.3. .%.%...d b V.j x A.Z.j l l l l l l l l l l l l l l l l l l l l l l l l l l l l l l l l w x l g /.xXiXlX",
"cXkXgX X{ 6.$.=.@.+.6.3.H ..L d x.i 9 9 t t 9 0 t t t t t t t t t t t t t t t t t t t t t t t t t t t t t t t t z u n.7 $XhXbXaX",
"cXcXuX9Xu.W %.=. .3.+.| 6.U a p e e j V.N.e u B.h h u u h h h h h h u u h h h h h h h h u u h h h h h h h u u x.p 6 6 S.gXfXcXvX",
"bXcXlXgX|.Z ,.Q +.|  ...U p c.i V.m.x.r e t r c.r r r r r r r r r r r r r r r r r r r r r r r r r r r r r r r r B.u y OXxXfXfXxX",
"bXbXbXaX8Xt.:.Q T ..X.f c.u c n.3 y M.b.w a p u k k k k k k k k k k k k k k k k k k k k k k k k k k k k k k k k u 7 F.iXhXMXbXbX",
"bXlXkXlXgXL.4.) 7.Y a r w j v.j n.r 6 r x.r t k u u u u u u u u u u u u u u u u u u u u u u u u u u u u u u u u m.q +XMXfXvXvXlX",
"MXfXxXaXaX9Xz.C f s b.n.5 4 B.u u u u u u u u u u u u u u u u u u u u u u u u u u u u u u u u u t j t 8 u u r x.2 T.uXbXcXcXbXvX",
"gXbXcXxXlXhXXXp.a p 6 r B.p e x.u u u u u u u u u u u u u u u u u u u u u u u u u u u u u u u u j t h h e u u e D.$XgXbXbXbXbXlX",
"aXbXkXkXbXlXqX'.e n.x.e k z e r u u u u u u u u u u u u u u u u u u u u u u u u u u u u u u u u t b.u e v.b.y q $XqXxXbXbXbXbXvX",
"gXdXtXkXbXaXpXpXJ.j u N.8 y M.e u u u u u u u u u u u u u u u u u u u u u u u u u u u u u u u u 8 N.e r C.8 w T.gXxXbXvXbXbXbXvX",
"MXdXcXbXlXaXbXcXgXF.7 N.v.u b.t u u u u u u u u u u u u u u u u u u u u u u u u u u u u u u u u e u x.m.j 1 G.iXbXbXzXvXbXbXxXbX",
"kXbXlXlXaXbXkXtXkX-XG.0 h h e y u u u u u u u u u u u u u u u u u u u u u u u u u u u u u u u u u e b.t 1 Y.uXxXcXbXcXvXbXbXzXbX",
"bXbXlXlXgXbXcXfXrXbX2XP.z t t u u u u u u u u u u u u u u u u u u u u u u u u u u u u u u u u u r u y g G.qXMX7XcXbXbXlXvXbXvXbX",
"vXaXgXMXvXhXxXaXlXsXxXqXH.9 u v.u u u u u u u u u u u u u u u u u u u u u u u u u u u u u u u u x.u q U.iXxX:XvXbXbXvXiXlXbXbXbX",
"bXbXbXbXbXbXbXbXbXyXfXbXiXT.l 8 b.e 6 u v.u y z r u x.v.x.u u u u u v.v.v.u u u z y u N.x.e e u 7 b oXlXbXcXjXlXbXbXbXbXbXbXbXbX",
"bXbXbXbXbXbXbXbXlXbXbXdXxXaX%XD.8 k B.u 4 e t u u u t e e e t t t u t e e e t u u t e 4 u B.k 8 U.&XaXzXwXcXbXxXbXbXbXbXbXbXbXbX",
"bXbXbXbXbXbXbXbXiXvXbXhXbXMXMX7XR.b 2 9 V.M.r x.u t u u u u i i b.b.b.i i y y i x.r m.V.t 1 v T.0XxXMXMXkXcXcXcXbXbXbXbXbXbXbXbX",
"bXbXbXbXbXbXbXbXbXdXgXbXbXrXfXkXaX3X).c 2 8 u e u u u u u r e 4 4 e r r u u u u r h 8 2 c ).3XaXvX8X7XbXbXxXfXcXbXbXbXbXbXbXbXbX",
"bXbXbXbXbXbXbXbXcXbXzXlXvXbXbXfXcXzXvXuXoXv q 0 e e e u v.n.m.n.v.v.v.u t e t t 0 q A.OXiXvXzXcXrXcXbXvXlXlXbXbXbXbXbXbXbXbXbXbX",
"bXbXbXbXbXbXbXbXvXbXbXvXlXlXvXlXkXcXcX7X0XuX*X^.A.Z.k 9 7 8 9 8 8 8 7 7 0 z Z.S.^.<XiXiX6XcXcXtXkXbXbXgXaXlXlXlXbXbXbXbXbXbXbXbX",
"bXbXbXbXbXbXbXbXgXzXbXbXbXjXlXvXbXvXvXbXbXbXlXgXuX<X$XoX^.Y.P.D.G.U.Y.^.+X&X3XiXgXlXbXbXbXvXzXbXvXzXdXxXbXvXvXvXbXbXbXbXbXbXbXbX",
"bXbXbXbXbXbXbXbXlXvXbXfXkXkXcXkXaXlXbXdXfXbXbXjXMXMXhXMXMXMXxXgXgXxXMXMXMXvXvXvXxXbXbXfXdXbXlXaXaXvXbXcXkXfXxXvXbXbXbXbXbXbXbXbX"
};
