/* XPM */
static char *_08ae7e30b9b4a9cf2e9fd05880d2dad1gzNsLqiJmhwD2NB[] = {
/* columns rows colors chars-per-pixel */
"64 64 256 2 ",
"   c #070602",
".  c #140200",
"X  c #1B0301",
"o  c #190B02",
"O  c #0D1512",
"+  c #240200",
"@  c #280602",
"#  c #360500",
"$  c #271503",
"%  c #381706",
"&  c #291B16",
"*  c #3A1C12",
"=  c #1C2A09",
"-  c #382219",
";  c #333013",
":  c #132B2E",
">  c #31312F",
",  c #191D22",
"<  c #440301",
"1  c #491701",
"2  c #551B01",
"3  c #560C0C",
"4  c #6E0C12",
"5  c #582703",
"6  c #4B2616",
"7  c #512F0E",
"8  c #673505",
"9  c #683211",
"0  c #4E352C",
"q  c #673A27",
"w  c #6E352D",
"e  c #354510",
"r  c #324935",
"t  c #16403E",
"y  c #50490D",
"u  c #764601",
"i  c #704C0E",
"p  c #75690F",
"a  c #524A2F",
"s  c #784729",
"d  c #674836",
"f  c #764837",
"g  c #785339",
"h  c #6C4F2F",
"j  c #636934",
"k  c #243A44",
"l  c #463E47",
"z  c #134C51",
"x  c #304F51",
"c  c #3C645C",
"v  c #2F6E71",
"b  c #355760",
"n  c #495758",
"m  c #575957",
"M  c #4E4C49",
"N  c #775845",
"B  c #65534A",
"V  c #536952",
"C  c #716A55",
"Z  c #577879",
"A  c #4F706D",
"S  c #697676",
"D  c #737975",
"F  c #6D6F6B",
"G  c #5A5B62",
"H  c #8E3432",
"J  c #9A2127",
"K  c #885604",
"L  c #8A5411",
"P  c #986902",
"I  c #936C0D",
"U  c #A67806",
"Y  c #A96F0D",
"T  c #88563A",
"R  c #8B522F",
"E  c #906C32",
"W  c #AC722F",
"Q  c #A55B00",
"!  c #C27D14",
"~  c #A43C43",
"^  c #CD3946",
"/  c #865B48",
"(  c #955549",
")  c #BB4E56",
"_  c #886547",
"`  c #976748",
"'  c #876654",
"]  c #976958",
"[  c #9B7457",
"{  c #8F7352",
"}  c #A77757",
"|  c #B67C57",
" . c #A86F4F",
".. c #8E7568",
"X. c #AE7A67",
"o. c #D04B55",
"O. c #EA4C51",
"+. c #E05A67",
"@. c #D4383C",
"#. c #528676",
"$. c #718A74",
"%. c #96860F",
"&. c #B58703",
"*. c #B18B13",
"=. c #B48A2D",
"-. c #A69832",
";. c #CB8F0D",
":. c #D6AA10",
">. c #E9BA1A",
",. c #F6BA1A",
"<. c #EFB709",
"1. c #CA932D",
"2. c #D2A930",
"3. c #E9B827",
"4. c #F6BC28",
"5. c #ECB638",
"6. c #E49C11",
"7. c #EDC305",
"8. c #F4C503",
"9. c #F8C708",
"0. c #F8C717",
"q. c #F4CC18",
"w. c #F8C725",
"e. c #F9C836",
"r. c #F0CD2F",
"t. c #978C4D",
"y. c #B98559",
"u. c #B28E4D",
"i. c #928874",
"p. c #B7876A",
"a. c #B9937A",
"s. c #AE8A6F",
"d. c #B3A657",
"f. c #D0B24E",
"g. c #C48865",
"h. c #C6977B",
"j. c #D09871",
"k. c #D6AC71",
"l. c #F7B77D",
"z. c #EBB179",
"x. c #D6A149",
"c. c #F2CE4D",
"v. c #E7C569",
"b. c #317C87",
"n. c #6F7E81",
"m. c #447A86",
"M. c #398C90",
"N. c #548E8E",
"B. c #6D928E",
"V. c #70A499",
"C. c #539CA8",
"Z. c #699CA5",
"A. c #59B6BB",
"S. c #50A7AD",
"D. c #6CB7B9",
"F. c #77B8B8",
"G. c #6DACAD",
"H. c #5CA39C",
"J. c #59C3BF",
"K. c #75C5BA",
"L. c #5ABCC5",
"P. c #5BBDCC",
"I. c #55BCC5",
"U. c #53BECA",
"Y. c #64BCC8",
"T. c #67BED3",
"R. c #74BBC3",
"E. c #5BC3C5",
"W. c #5CC4CC",
"Q. c #59C6CA",
"!. c #5DC4D2",
"~. c #5CCAD3",
"^. c #57CACE",
"/. c #63C4CC",
"(. c #62CACD",
"). c #68C5C9",
"_. c #78C6CA",
"`. c #63C4D3",
"'. c #6AC5D4",
"]. c #64CBD4",
"[. c #6BCBD4",
"{. c #64CCDA",
"}. c #6BCBDA",
"|. c #68C6D9",
" X c #74CBD6",
".X c #6BD3DB",
"XX c #67D2D7",
"oX c #72D4DC",
"OX c #78D6D9",
"+X c #70D3CD",
"@X c #67CEE2",
"#X c #6CD6E3",
"$X c #72D3E2",
"%X c #77DAE6",
"&X c #76CEE2",
"*X c #7CE5E9",
"=X c #7CE4F0",
"-X c #899594",
";X c #8F938E",
":X c #B49384",
">X c #8BA697",
",X c #B4AB92",
"<X c #96B5A8",
"1X c #96BAB4",
"2X c #8BB0AC",
"3X c #AEB4B2",
"4X c #C79A86",
"5X c #D49885",
"6X c #D3AA8E",
"7X c #E6AA86",
"8X c #F8B888",
"9X c #EBB898",
"0X c #FABC95",
"qX c #EBB188",
"wX c #D0B7A9",
"eX c #E7BAA7",
"rX c #F3B7A6",
"tX c #99C5B5",
"yX c #B1C3B8",
"uX c #FCC498",
"iX c #F9C18C",
"pX c #CDCBB5",
"aX c #F2C9AD",
"sX c #D7D6A8",
"dX c #86BDC5",
"fX c #A4BDC1",
"gX c #87C8C9",
"hX c #85D7DA",
"jX c #96D7D8",
"kX c #90CECB",
"lX c #A9CBC6",
"zX c #BBC7C4",
"xX c #ADD6D0",
"cX c #8EE4DD",
"vX c #AAE5DC",
"bX c #85DBE5",
"nX c #91DAE0",
"mX c #83EBEB",
"MX c #88E6E9",
"NX c #96E8E9",
"BX c #89F2EC",
"VX c #94F4EC",
"CX c #89EBF2",
"ZX c #94EDF5",
"AX c #8CF3F4",
"SX c #96F3F6",
"DX c #A6F5F6",
"FX c #ADF0EA",
"GX c #CDD5CF",
"HX c #EAD8CA",
"JX c #CEE5D4",
"KX c #F1E9D6",
"LX c #C6ECE7",
"PX c #FAFBE7",
"IX c #EDF3EB",
"UX c #D6BDC1",
/* pixels */
"'.'.].!.!.!.`././.(.E.(.(.(.W.~.Q.W.`.}.!.W.XX(.(.].}.|.'.S.].~.(.(.OXOX_.R.Y.Y.~.~.].oXhXR.M.S.OXT.L.Y./.W.`.`.T.}./.E./.'.`.!.",
"'.'.`.!.!.`.`./.L.[.[.(.W.W.].W.(.(.'.'.W.(.(.(.].`.}. X/.).).+XhX_.S.v M.C.R._. X X_.Z.m.v G._.C.C.A././.L.|.W.].P./.(.Y./.!.`.",
"(.(././.`.`.!.W.].I./.{.].~.`.`./.].&X}.I.W.(.W.W..X'.).OX_.G.G.A : z N.F.2XZ.N.A c r > n S N.b v Y. XY.)./.A.L.E.Q.E.L.E./.(.W.",
"(.(./././.W.W.W.P.}.'.}.].`.`././.}.'.&X`.P.oX(.I.}. X_.G.v A > : n n.Z b x : , , , - 0 l > : b D.'.A.S.D.).S.E.Q.Q././.E.E.].W.",
"(.W.W.W./.W.W.W.W.`.S.Y.bX X/./.|.}.$X@X#X].A.).OXY.nX2Xx : M O r D G n n n n m M 0 > , , : v R.'.A.M.D.hXM.S.`.W.W.).A.E.].P.@X",
"/.W.W.W.W./.(.(.`./.T.v b.D.hXS.A.$X{.$X%XbXhXN.N.gXZ.z > -Xa M 3XD B.-X-X;XF M 0 & , > S B.F.F.G.R.F.N.z v  XY. X XA./.[.P.|.T.",
"`./././.W.~.(.].~.W.[._.b m.V.H.G.OX XA.C.D.gXvXx x : x -X3XG GXB.zX3XyX3XD m D ;XB.n.S Z Z Z N.B.A x k z jXgXgXZ.M.A.[.E.`.'.'.",
"`.`./././.(.(.(.~.(.(._.gXZ LXV.N.F.hXhXgXN.z 2Xn   S G GXG zXn.zX-X>XzX;X;XyX>XS G S B.S A n x k M > x N.b z z v A. X(.].].]./.",
"|.`.`.'.)./.(.].~.Q.[.).hXv xXIX3XZ F.D.D.vXb x n > -XD D F D -XS m -XS 3X>XG B.zXLXGX<XB.G n M m > , r     z S.OXoX'.].[.(.].(.",
"`.`.`.'.'.'.`.].~.].[.[.+XgXZ 2XKXIXN.kXG.F.c G F m ;XG M m M m > F F ;XG S 3XGX3XF n F -X<X;XG l l > O x V.kXhXL.S.W..XW.(.{.W.",
"!.!.!.`.].|.'.'.P.P.!.$XoXOXNXA i.KXGX2XvXkX> D F m m M & - > > 0 > M > G ..D M > m D ;X;XF 0 > > , t V.kXjXF.v b.)..X~..X{.{.@X",
"~.~.!.!.].|.}. X'.`.{.{.#X%XbXjX#.F 2XxXH.gXx a > > & - - 0 - $ X $ $ o & & & - 0 M 0 0 - & & , > n 1XlX2XZ.A m.bX.X].].{.].!.{.",
"(.].W.`.].}.}.}.{.W.{.#X$X$X%XMXcXNX_.G.Z.B.F C & % ] X.5X9XqXp.T h.a.[ N d 0 $ . o @ X o & > x c V.B.S ;XIXB._.oX{..X{.[.oX[.(.",
"W./.(.`.].}.'.'.E.oXoXoXMXMX*XmXmX*XSXDXFX;XwX4X@ X.a.4Xp.` y.qX0XuXqXh.a.h.a.s.N X % @ X & n B.kX2X1XPXIX3XH. X{.{.{.oX X).oX(.",
"W.(././.].].].[.M.M.D.OXMXMXCXAXmXBXVXFX-X,X6Xs s 4Xd 6 4X9Xg / y. .` 4Xa.q / 6XaX_ ` 4X..m lXFXFXB.JX<XB.G.+XXX].{.$X}. X X`.{.",
"(.].(.W.`.{.{..XhXC.v F.kXDXSXMXAXBXFXV.i.a.` 6Xh.f d / 6 6 N ] j.y.` g 6 q q a.a.} h.h.s.i.-XlX1X1X1XN.FXMX+X].{.{.}.}.}.`.].~.",
"Q.(.(.W.`.}.{.}. XhXB.xXfXN.gXNXDXFX$.i.s.j.uX9X/ g 9XeX6Xg # _ j.E @ q 4XeX6Xp.h.} aXaX9Xa.i.C $.<XF.NXNXMX+XXX!.#X}.|.{.{.].].",
"W.(.E.W.'.`.{..X[.hXF.B.xXlXV.vXvXB.i.s.9X9XR / d d N N g a.:X/ 9XT 4X:XN ' ' h s./ 7 f _ aX6X[ { >XDXZXCXMXOXOX.X`.|.}.W.W.].].",
"!.P.}.{.L.[..X].XXOXbXhXZ.N.kXV.$.i.s.7X6XT # q ..KXIXPXKXi.g 5X5X6X[ ' GXKXPXKX..' - . $ _ j.j.s.;X2XSXSXCXMXMXY.A./.`.W.].`.}.",
"|.|.P.`.L.S.S.+XMXOXbXZXDXgXkXvX>X..} uXp.% * ..PXyX>XV.JXPXaX` 5Xg ..PX<X>X2XIXPXi.B $ 0 7 9Xg.s.i.kXZXMXDXNXN.M.oX}./.}.`.`.'.",
"P.`.`.Y.[.).M.v H.gXDXDXNXVXVXFXtXi.} 7X9Xq 6 UXxXV.jXv B.JXHXf X.h pX>X1XV.v tXKXwX' 6 * [ aX .a.$.vXSXNXdXZ.m.hX{.~.{.}.'.`.`.",
"].`.'.}./.+XOXG.Z.xXZ.G.VXBXVXFXtXD s.p.aX9 w KX<XV.z t N.JXHX} [ _ HX-Xc O v 2XKXaX' N 6 a.aX/ :X$.FXNXG.dXdXdXOX%X#X.X}.}.`.!.",
"^.E.).).(..X.XOXH.lXlX2XgXFXNXVXkXV ,Xg aX` 9 eXGXA v N.>XPXwX} [ _ KXpXA #.N.GXaXrXT # } aXg.] i.>XLXF.V.F.D.bX%X{..X[.{..X!.].",
"^.W./.[.].{..XOXhXF.N.lX2XF.ZXDXkXM wXT k.uX .p.KXJX1XtXKXaXaX` h._ aXHXxXtXJXKXeXrX9 | uXuX| :Xm lXgXN._.NXVXAX%X%X.X}.{.~.{.].",
"!.`.`.'..X.X.X%XbXNXjXF.gXG.C.jXtXm 6Xg.g.uX0X} sXPXKXKXHX6X6XT aXp.] eXHXPXHXaXeX .i uXl.0Xg.4XF <XF.NXVXBXVXCX%XoXoXXX{.{.{.{.",
"`.].`.]..X.X#X*X=XMXMXDXZXSXMXNXV.F 4Xg.g.0XuX| N aXeXeX9X5X5 | aXp.9 p.4XKXwXeXp.5 E z.8Xz.| 4XC 1XDXAXmX*XAXZXMXOXOX.X{.{.{.].",
"`.`.].{..X.X#X=X=XmXZXCXMXCXBXDXV.D ] j.R | 0Xj.s s h.X.} w R 7XaXj.X.s ' ] ` / 1 T 7Xz.0X| j.i.A jXDXCXAXAXZXZXCXbXOXoX{..XXX].",
"/.(.].{.{..X$X*X*XAXMXZXZXSXVXcXFXA ,Xk.qXg.qX0X0X5 9 T ( 9 w g.0XR s } f X. .T 5 7X8XuXg.j.6XC <XDXNXSXmXBXSXZXCX%XoXoX}.{.{.].",
"Q.Q.~.].].{.oX*XmXmXmXVXSXhXgXcXDXkXC 6X7Xj.iXl.iX| ` 9Xf ]  .s 5X# T h.f f eX` H 0X8X8Xg.p.s.V xXN.S.AXVXBXAXAXCX%XoXoXoXoX}.[.",
"Q.Q.~.].].{.%X*X*XBXBXBXNXS.G._. XFX$.C h.| 8Xl.l.z.T s.X.5XrXX.9 T aX9XeX_ p.T g.0X0X8Xp.4XC <XjXR.MXAXBXBXCXAXCX%X$X$X$XoX}.[.",
"/./.`.].]..X%XMXmXmXBXVXVXNXNXZXMXVXkXV i.` 7X8X8X8XT g a.9 T 5Xh.eXX.w w X.w q k.8Xl.8Xj.:XV FXD.NXSXAXAXAXmXSXmXoX.X.X}.}.].{.",
"'.T.`.`.`..X%X*X*XmXmXBXSX X_.SXVXVXDXB...X.E 8Xl.uX` / f 6 ] q _ d q ] w q ] 7 z.l.l.l.9X' B.F.NXVXCXCXCXCXSXmXmX%X.X.X.X.X{.XX",
"`.`.|.{.{.XXOXmX*X*XAXAXhXM.MXBXBXcXMXvXB 4Xy.l.8XuX[ / 0 6 wX,XpX,XHX,XB @ ..6 qXl.l.8XqXd xXG.K.VXBXVXCXAXAXmXmX%X%X.XoXXX.X[.",
"/.`.{.{.].].XX%XmXAXmXVXNXNXDXFXFXkXH.FXC } iXl.8X0X} d 0 6 pXpXKXpXIXGXF . :X6 g.8X8X8X7X' <XFXFXFXvXvXFXNXBXBXmXoX%X#X.XXX[.|.",
"!.!.].].(.(..X#X=X*XmXSXDXvX$.V V $.<XyX{ 5XqX8Xz.iX` 0 q 6 wXwXKXpXKX,XB . :Xq R l.8X8XuXp.a $.S V e e V xXVXBXmX%X%X#XXXXX{.{.",
"!.!.W.W./.].#X%X=X%XOXNXtXe j t.t.j a a h g.qXiXz.y.1 q B . X - 0 - - . . . :XT 1 g.g.7X8XuXh a 0 t.v.f.t.e kXmX%X=X#X@XXXXXXX{.",
"`./.Y././.].$X%X%XbXbXtXy 2.c.r.c.f.u.g y.8X0X7X| # ] ] B . X . X . . X o . ] ] 6 # ( T 9XuXiXE i E 2.c.c.%.r NX%X#X$X.X.XXXXXXX",
"/./././.].{.$X%XbXhXvXj -.r.q.r.P P 5 W uX0X7Xg./ # 4XX.d X X @ + + @ # @ + / ] N @ q T ` 8XiXz.W 2.P &.w.c.y B.ZX#XoXoX]..X].].",
"/.W.`.].~.@X&X$X%XNX#.p r.r.3.p *.2.I u.iXqX .} h 7 X.p.N X + + # < 4 ) ~ 4 T ' C - 7 T `  .uXE 1.*.*.*.U c.u.; jX%X.X.X].}.}. X",
"(.W.!.].@X@X$X%X%XkXe f.r.:.u =.2.*.f.I z.W  .q d d q h.g + + < ( H +.+.+.) H N ..0 q s  .g.R =.U r.*.%.*.*.v.y V.MX].XX$X|. X'.",
"Q.].W.}.}.}.$XoXMX#.p c.c.u U =.*.c.*.*.L | T 6 M F * 4X' # @ H o.^ +.o.J H T f ..N 5 ` R  .u 1.5.U 2.*.I u =.E V jX X.X{.#X|. X",
"^.Q.'./.[.oXXX_.jXV f.c.*.5 =.1.2.&.2.2.L W 9 d M ;X- s...# # ) ^ O.O.J < 3 R / N a 5  .E 5 x.U :.e.1.1.K 1.P u y r jX X`.#X{.}.",
"^.^.(.(.(.(.W.cXV.j p u P &.K 2.P 1.2.K 1.8 8 q m <XB B ..# < ) @.O.o.4 @ + f ] B C 6 _ y 8 1.5.&.2.*.K 3.w.e.:.%.y a F.hX!.@X@X",
"Q.Q.(./.(.+XcXV.= p =.5.e.w.3.P *.1.K 1.W L 5 h C GX;X& ..@ # ) O.O.o.3 @ . f ' m ;Xd h % p Y 2.c.*.u r.q.8.7.q.w.c.p = V. X!.~.",
"/.E.W.'.'.gX#.= %.c.w.9.9.8.q.r.P u 1.W W 2 8 R ..IXJX> d % @ H O.O.o.3 X . N B m 3X..g E @ L I u.P :.q.7.9.8.9.8.w.2.%.a B._.(.",
")./.W.T.gXx a p r.7.8.8.8.8.8.q.c.8 K W 2 2 W R ..IXIXi.d % 6 w o.O.o.~ q o d B A <Xi.g k.u % i i 5 3.0.7.8.9.8.8.9.w.*.u.; F.).",
"E.(.P. Xc y -.*.w.7.9.9.8.8.8.w.1.u 8 5 # L W E i.IXJXpXd d HX:X4 ) ) ( HXwXa i.-XtX,XE f.u =.8 2 8 Y 4.0.8.9.8.9.9.q.:.2.y A _.",
"E.Q.!._.; u.U 4.0.8.8.8.8.8.0.3.W 8 <  .s i =.W t.IXzXGXi.N :X:Xw < 3 3 s.....;X>XlX,Xt.f.5 W g.9 2 L &.,.9.8.8.8.9.8.q.2.i r dX",
"J.E.`.G.a =.:.0.9.9.9.8.7.q.4.;.I 2 8 j.9 8 ;.2.t.PXzXzX;Xi.] q 9 X. .w ' s.s.i.lXyXa.u.k.5 L W R 1 i K ;.0.8.9.9.0.7.0.5.p r G.",
"J.E.}.N.y 1.w.8.8.<.9.9.9.0.;.Y 8 1 L R 5 u ;.5.-.sXIX>XIX- 0 6XaXeXaXeXa.0 0 PX<XyXt.d.v.8 K L 8 8 # R U 4.9.8.8.8.9.7.e.I ; 2X",
"E./.'.N.h =.w.7.8.9.7.7.w.;.Q W < L 9 s 5 i ;.e.-.sXPXzX3XGX& N 0 + @ - a > HXIX-XpX-.f.5.K 8 R 5  .# 8 1.w.<.9.8.8.8.0.>.I ; G.",
"/.Y.OX#.y =.q.9.8.7.q.q.6.! W 3 2 y.5 q % L ;.4.1.t.PXyX  3X;X  + + @ .   ,XB i.GX,XI r.5.P 1 s 5 y.R 1 P 3.w.0.0.,.0.,.e.P e tX",
"T.Y.R.V y Y >.9.9.0.>.5.2.W < #  .s 1 % @ L ;.4.f.E PXF . * ;X..% ....& i.j $ $ GXi.*.e.3.U i + + E u.u 2 K 1.;.3.4.:.4.5.u e >X",
"`.'.D.A t.K ;.w.w.3.*.I L 2 9 s [ @ X @ @ u ;.,.e.%.d.7 i E 7 a ' a...N a h u.5 i.s.2.q.:.*.5 @ # % y.8 ` 2 8 K Y ;.;.2.Y E F #.",
"E.L.).#.j f.Y *.5.1.W I u 8 i T j a o * % 8 6.<.0.r.i 8 c.P *.E 7 g h i W Y c.2.5 E r.q.e.Y @ f X - d h R L 5 W Y Q Y Y W _ c D.",
"W.E.J.K.V j k.I I L 8 8 8 i y d $.B.  X d 2 ;.,.9.q.3.2.w.w.&.2.d.i I =.*.4.0.e.u U r.q.3.5 L d   S B.r o h % s u.u.=.E a V F.'.",
"/./.L.Y.K.A a E E E E E 7 o > Z _.Z.O . 6 E Q ,.0.9.q.w.0.9.w.<.w.w.r.>.0.9.0.0.>.q.9.q.U K y.$   Z gXD.N.x >   o > r r V._.A.Q.",
"Y.W./.L./._.B.= $ 6 ; ; > b Z._.Y.R., o . E ! ;.,.0.<.7.0.0.7.q.9.9.0.0.9.8.8.8.9.7.q.:.U k.i . O N.'.`. XD.V.A A A N.F./.E.~.E.",
"Q.E.Q.!.!.L._.F.N.Z #.G.gX_.T.Y.`._.: . % 1 W 1.U e.w.:.,.,.3.>.w.>.>.,.0.9.8.8.8.q.q.&.x.L # d O Z.).U.P./.)._.gX_.'.Y.L.I.E.W.",
"Q.Q.!.W.P.W.!.P.[. X)./.I.I.!.P.P. Xb   $ E 2 1.Q &.e.>.;.;.&.&.&.;.;.:.:.>.7.9.q.:.&.1.E 1 y.g O F.).W.W.W.I.Q.L.Y.W.W.`./.W.W.",
"W.W.E.L././.I.W.L.L.L./.W.E././.I. XA   o g 1.u 1.Q ;.w.>.&.U &.:.0.>.:.:.3.>.;.&.&.1.Y K u. .X > dXY.E.W.].Q.^.Q.L.P.`.P.P.E.W.",
" X).W.E.L.Q.Q.W.Q.W.W.E.J.J.E.L.E.).B.  & 7 =.5.;.! ;.w.0.w.>.>.9.<.<.>.:.&.&.;.2.1.P Y u.E 8 $ x _.Y.W.P.W.U.Q.Q.(./.L.P.!.E.W.",
"R.nX/.L.^.^.Q.~.!.W.Q.E.Q.Q.W.!.E.).G.: . h u 1.4.,.&.;.0.<.,.0.9.8.8.7.7.0.0.0.:.;.1.=.L i h   v _.Y.P.T.!.^.Q.W.A.L./.Y.`.W.Q.",
"Z.gXY.W.^.Q.!.E.!.!.W.Q.Q.W.W.!.!.L._.:   % W Y 6.0.w.:.<.<.0.9.9.9.8.8.9.9.9.9.0.e.2.K I E %   #._./.Y.T.P.^.Q.Q.E.W.W.T.`.!.^."
};
